<svg viewBox="0 0 145.58 163.49" xmlns="http://www.w3.org/2000/svg"><path d="M49.088 114c-8.5-8.6-13.3-20.3-13.2-32.4 0-12.1 4.8-23.8 13.5-32.3 7.4-6.6 8.1-18 1.5-25.4s-18-8.1-25.4-1.5c-.5.5-1 .9-1.4 1.4-32 31.8-32.1 83.5-.4 115.5 6.6 7.4 18 8 25.4 1.4s8-18 1.4-25.4c-.5-.4-.9-.9-1.4-1.3z" fill="#ffda00"/><path d="M49.388 49.301c17.9-17.8 46.9-17.7 64.7.2 6.6 7.5 18 8.2 25.4 1.6s8.2-18 1.6-25.4c-.5-.5-1-1.1-1.5-1.5-31.7-32-83.2-32.3-115.2-.7l-.3.3c-7.5 6.6-8.2 17.9-1.6 25.4s17.9 8.2 25.4 1.6z" fill="#67b3ff"/><path d="M113.89 114.2c-8.6 8.6-20.3 13.3-32.4 13.3s-23.8-4.8-32.3-13.5c-6.6-7.4-18-8.1-25.4-1.5s-8.1 18-1.5 25.4c.5.5.9 1 1.4 1.4 31.7 32 83.3 32.3 115.3.6l.2-.2c7.1-7 7.1-18.4.1-25.5-6.9-6.9-18.3-7-25.4 0z" fill="#eb5a68"/><path d="M48.688 50.401c-7 7-18.4 7-25.5 0s-7-18.4 0-25.5 18.4-7 25.5 0l.1.1c7 7.1 6.9 18.4-.1 25.4z" fill="#47a1ff"/><path d="M48.688 138.7c-7 7-18.4 7-25.5 0s-7-18.4 0-25.5c7-7 18.4-7 25.5 0l.1.1c7 7.1 6.9 18.4-.1 25.4z" fill="#d5465f"/></svg>