<svg viewBox="0 0 362.73 411.38" xmlns="http://www.w3.org/2000/svg"><path d="M0 0h362.73l-33.046 370.2-148.54 41.181-148.13-41.123z" fill="#264de4"/><path d="m301.4 346.63 28.24-316.35H181.37v349.63z" fill="#2965f1"/><path d="m75.677 167.6 4.07 45.41h101.62V167.6z" fill="#ebebeb"/><path d="M181.37 121.1V75.689H67.503l4.128 45.411z" fill="#ebebeb"/><path d="m181.17 285.59-50.574-13.656-3.233-36.217H81.778l6.362 71.301 93.02 25.823.209-.058v-47.246z" fill="#ebebeb"/><path d="m274.3 307.01.683-7.672 10.671-119.55 1.108-12.194 8.198-91.912H181.21v45.411h63.988l-4.132 46.501H181.21v45.41h55.918l-5.271 58.894-50.647 13.67v47.244z" fill="#fff"/></svg>