<svg fill="#761255" viewBox="0 0 163 136" xmlns="http://www.w3.org/2000/svg"><path d="m0.4 67.8c0-13.056 2.4-25.368 7.2-36.936s11.712-21.816 20.736-30.744h18.144c-18.816 18.624-28.224 41.184-28.224 67.68s9.4079 49.056 28.224 67.68h-18.144c-9.024-8.928-15.936-19.176-20.736-30.744-4.8-11.568-7.2-23.88-7.2-36.936zm162.2 0c0 13.056-2.4 25.368-7.2 36.936-4.8 11.568-11.712 21.816-20.736 30.744h-18.144c18.816-18.624 28.224-41.184 28.224-67.68s-9.4079-49.056-28.224-67.68h18.144c9.024 8.928 15.936 19.176 20.736 30.744s7.2 23.88 7.2 36.936z"/><path d="m67 9h12v69h-12z"/><path d="m127.78 28.994-7.778-7.7782-48.79 48.79 7.7782 7.7781z"/></svg>
