<svg viewBox="0 0 66.026 58" xmlns="http://www.w3.org/2000/svg"><path d="m46.06 21.11-12.54-7.24a1.014 1.014 0 0 0-1.015 0l-12.54 7.24a1.015 1.015 0 0 0-.508.878v14.48c0 .362.194.697.508.879l12.54 7.24c.314.181.7.181 1.015 0l12.54-7.24c.314-.181.507-.516.507-.879v-14.48c0-.363-.193-.697-.507-.879z" fill="#8080f2"/><path d="M.407 27.705 15.391 1.638C15.935.695 16.941 0 18.03 0h29.967c1.09 0 2.094.695 2.64 1.638l14.982 26.01a3.1 3.1 0 0 1 0 3.074L50.635 56.576c-.545.942-1.55 1.424-2.639 1.424H18.03c-1.088 0-2.094-.467-2.638-1.41L.408 30.694a2.94 2.94 0 0 1 0-2.99zm12.407 12.534c0 .384.231.738.563.93L32.463 52.18c.332.192.748.192 1.08 0l19.1-11.011c.332-.192.564-.546.564-.93V18.216c0-.383-.229-.738-.56-.93L33.56 6.277a1.084 1.084 0 0 0-1.079 0L13.38 17.287c-.332.192-.566.547-.566.93V40.24z" fill="#4b32c3"/></svg>