<svg viewBox="0 0 18.188 10.92" xmlns="http://www.w3.org/2000/svg"><path d="M9.24 5.88V4.62A4.623 4.623 0 0 0 3.852.062C1.6.425 0 2.46 0 4.74v1.2c0 2.753 2.006 4.95 4.565 4.981a4.618 4.618 0 0 0 4.497-3.36H8.63c-.26 0-.497.15-.61.384a3.783 3.783 0 0 1-4.295 2.033C2.005 9.582.84 7.972.84 6.21v-.33zm-8.4-.962c0-1.977 1.178-3.594 2.908-3.98A3.785 3.785 0 0 1 8.4 4.62v.42H.84z" fill="#212121"/><path d="M9.113 10.735h.495c.353 0 .685-.165.899-.446l3.143-4.135 3.144 4.135c.213.28.546.446.898.446h.496l-4.01-5.275 3.83-5.04h-.495c-.353 0-.685.164-.899.445l-2.964 3.9-2.965-3.9A1.128 1.128 0 0 0 9.787.42H9.29l3.83 5.04z" fill="#212121"/></svg>