<svg viewBox="0 0 150.79 218.67" xmlns="http://www.w3.org/2000/svg"><path d="m102.15 22.661v41.155l46.248 118.78s14.119 29.009-26.263 36.078h-92.123s-37.638-3.927-28.615-33.729l48.602-121.13v-41.157z" fill="#009688"/><path d="m103.13 17.876h-55.479c-4.493 0-8.148-3.997-8.148-8.936 0-4.942 3.653-8.94 8.148-8.94h55.479c4.514 0 8.162 3.998 8.162 8.94 0 4.939-3.65 8.936-8.162 8.936z" fill="#004d40"/><path d="m88.491 89.859c5.953 0 10.808 5.817 10.808 13.02 0 7.172-4.858 13.004-10.808 13.004-5.967 0-10.808-5.832-10.808-13.004 0-7.206 4.84-13.02 10.808-13.02z" fill="#fff"/><ellipse cx="55.313" cy="112.65" rx="9.11" ry="10.981" fill="#fff"/><path d="m106.26 61.089v-19.575s24.823-5.473 37.228 23.399c0-2e-3 -19.333 14.086-37.228-3.824z" fill="#004d40"/><path d="m45.467 61.089v-19.575s-24.825-5.473-37.225 23.399c0-2e-3 19.314 14.086 37.225-3.824z" fill="#004d40"/><path d="m121.19 142.09c-40.364-12.521-74.3-5.799-90.887-0.718l-16.726 40.26c-7.53 24.034 23.912 27.193 23.912 27.193h76.942c33.727-5.698 21.939-29.079 21.939-29.079z" fill="#fff"/><path d="m63.016 157.05c0 4.341-5.834 7.873-13.02 7.873s-13.003-3.533-13.003-7.873c0-4.359 5.817-7.877 13.003-7.877 7.19 3e-3 13.02 3.518 13.02 7.877z" fill="#004d40"/><path d="m109.32 157.05c0 4.341-5.834 7.873-13.003 7.873-7.207 0-13.02-3.533-13.02-7.873 0-4.359 5.814-7.877 13.02-7.877 7.172 3e-3 13.003 3.518 13.003 7.877z" fill="#004d40"/></svg>
