<svg viewBox="0 0 128 128" xmlns="http://www.w3.org/2000/svg"><path d="M63.541 2.66c-3.862-.008-7.685 1.396-10.457 4.233L6.973 54.076C-8.607 73.37 17.575 71.125 28.799 76.682c4.026 4.115-15.43 7.152-11.404 11.271 4.026 4.115 24.344 7.928 28.376 12.043 4.027 4.115-8.24 8.482-4.214 12.598 4.026 4.115 13.338.216 15.082 9.717 1.242 6.789 16.781 2.917 24.38-2.643 4.027-4.119-7.701-3.732-3.675-7.848 10.012-10.238 19.334-3.719 22.76-13.978 1.692-5.07-14.74-7.816-10.708-11.932 11.585-6.765 51.623-11.168 32.625-30.166L74.227 6.893C71.304 4.087 67.403 2.668 63.54 2.66Zm.414 4.49c2.758.015 5.506 1.047 7.484 3.051L89.682 28.73c1.73 1.767 1.706 5.192.738 6.177L81.36 27.66l-1.78 10.73-7.57-3.995-12.118 7.658L55.88 25.91l-6.512 11.266h-9.953c-4.057 0-4.534-5.15-.848-8.836 6.44-6.95 13.828-14.034 17.844-18.139 2.018-2.063 4.786-3.065 7.543-3.05zM42.05 79.234c1.232.766 19.869 4.552 24.424 5.307 1.579.333.459 1.96-1.717 3.059-4.908 1.304-28.714-8.366-22.707-8.366zm72.465 12.971c-3.75.13-7.448 2.045-8.467 5.637 0 2.34 17.248 3.875 17.248-.553-1.229-3.556-5.032-5.213-8.781-5.084zm-79.785 10.152c-5.227.278-10.835 4.06-6.375 7.922 4.084 3.532 10.392-.878 12.283-5.806-1.237-1.644-3.533-2.242-5.908-2.116zm69.156.293c-5.265 4.723.59 9.515 5.78 6.463 1.156-1.174-.031-5.289-5.78-6.463z"/></svg>