<svg fill="#3880ff" viewBox="0 0 312 312" xmlns="http://www.w3.org/2000/svg"><path d="M37.44 156C37.44 90.521 90.521 37.44 156 37.44c26.359 0 50.695 8.588 70.387 23.142 5.164-12.156 15.572-21.547 28.385-25.334C227.883 13.232 193.477 0 156 0 69.844 0 0 69.844 0 156s69.844 156 156 156 156-69.844 156-156c0-18.031-3.067-35.377-8.715-51.525-7.685 10.39-19.778 17.322-33.517 18.033 3.117 10.607 4.792 21.843 4.792 33.492 0 65.479-53.081 118.56-118.56 118.56S37.44 221.479 37.44 156Z"/><path d="M156 224.25c37.605 0 68.25-30.587 68.25-68.25 0-37.605-30.587-68.25-68.25-68.25S87.75 118.395 87.75 156c0 37.605 30.645 68.25 68.25 68.25ZM258.375 97.5c18.847 0 34.125-15.278 34.125-34.125S277.222 29.25 258.375 29.25 224.25 44.528 224.25 63.375 239.528 97.5 258.375 97.5Z"/></svg>