<svg fill="#c21325" stroke="#fff" stroke-width="20" viewBox="0 0 398.21 439.88" xmlns="http://www.w3.org/2000/svg"><path d="M334.87 218.1c-.54.328-18.349-2.66-40.665-4.171-18.225-1.235-39.456-1.188-56.744-.017-14.019.949-32.438-6.098-34.639 2.277-8.238 31.351-25.963 58.655-48.511 79.928-16.963 16.003-36.377 28.138-57.375 35.615-24.999-12.842-36.805-41.404-26.152-66.447 8.449-19.863 18.28-41.74.13-46.745-13.213-3.644-20.468 9.013-25.547 22.545-9.73 25.923-28.219 52.748-33.488 84.521-5.562 33.542-.018 69.147 28.992 89.253 67.562 46.826 140.9-29.028 218.22-48.096 28.024-6.911 58.785-5.797 83.475-20.097 18.541-10.739 30.764-28.535 34.233-48.516 5.58-32.137-11.139-64.066-41.934-80.05z"/><path d="M384.26 10H145.27l64.943 191.64 54.632-110.47 54.321 110.81z"/><circle cx="198.94" cy="216.58" r="40.945"/><circle cx="332.33" cy="216.58" r="40.945"/><circle cx="65.052" cy="216.88" r="40.945"/></svg>