<svg viewBox="0 0 101 101" xmlns="http://www.w3.org/2000/svg"><path d="m57.8 27.2-0.1-26.9h-15l0.1 26.9 7.5 10.3 7.5-10.3z" fill="#fff"/><path d="m69.9 36 15.8-21.8-12.1-8.8-15.8 21.8v12.7l12.1-3.9z" fill="#fb015b"/><path d="m74.5 50.3 25.6-8.4-4.6-14.2-25.6 8.3-7.5 10.3 12.1 4z" fill="#d63aff"/><path d="m62.4 54.2 7.5 10.3 25.6 8.3 4.6-14.2-25.6-8.3-12.1 3.9z" fill="#00b9f1"/><path d="m57.8 73.3 15.8 21.8 12.1-8.8-15.8-21.8-12.1-3.9v12.7z" fill="#00f2e6"/><path d="m42.8 73.3v27h15v-27l-7.5-10.3-7.5 10.3z" fill="#fff"/> <path d="m30.6 64.5-15.8 21.8 12.1 8.8 15.9-21.8v-12.7l-12.2 3.9z" fill="#fb015b"/><path d="m26 50.3-25.6 8.3 4.6 14.2 25.6-8.3 7.5-10.3-12.1-3.9z" fill="#d63aff"/><path d="m30.6 36-25.6-8.3-4.6 14.2 25.6 8.4 12.1-4-7.5-10.3z" fill="#00b9f1"/><path d="m42.8 27.2-15.9-21.8-12.1 8.8 15.8 21.8 12.2 3.9v-12.7z" fill="#00f2e6"/></svg>
