<svg viewBox="0 0 91.753 90.067" xmlns="http://www.w3.org/2000/svg"><path d="M84.514 69.662c-4.995-.125-8.863.373-12.107 1.748-.936.374-2.432.374-2.56 1.56.503.498.563 1.308 1.003 1.998.746 1.248 2.054 2.93 3.242 3.806 1.311.999 2.622 1.994 3.996 2.867 2.432 1.504 5.18 2.374 7.547 3.873 1.377.872 2.745 1.995 4.123 2.933.684.499 1.117 1.312 1.995 1.62v-.189c-.44-.56-.563-1.371-.998-1.999-.622-.619-1.248-1.184-1.873-1.805-1.81-2.434-4.06-4.553-6.488-6.3-1.999-1.377-6.37-3.25-7.177-5.552l-.127-.127c1.373-.127 2.999-.627 4.308-1.006 2.119-.56 4.053-.433 6.237-.993 1-.251 1.999-.566 3.001-.872v-.566c-1.129-1.12-1.937-2.62-3.122-3.68-3.18-2.745-6.679-5.427-10.297-7.677-1.938-1.248-4.434-2.055-6.494-3.119-.745-.375-1.992-.56-2.43-1.187-1.124-1.373-1.75-3.18-2.56-4.805-1.808-3.429-3.559-7.234-5.116-10.86-1.123-2.431-1.81-4.863-3.183-7.111-6.43-10.611-13.417-17.035-24.15-23.34-2.31-1.311-5.056-1.873-7.986-2.56-1.563-.065-3.122-.186-4.682-.247-1-.439-2-1.626-2.872-2.187C12.186 1.64 3.016-3.227.394 3.2c-1.686 4.058 2.495 8.05 3.931 10.11 1.06 1.434 2.435 3.06 3.18 4.68.438 1.06.563 2.186 1.002 3.307.997 2.746 1.932 5.804 3.245 8.364.684 1.311 1.432 2.686 2.305 3.866.504.69 1.375.998 1.563 2.125-.87 1.247-.939 3.119-1.437 4.68-2.246 7.052-1.374 15.79 1.81 20.967.996 1.56 3.371 4.993 6.554 3.68 2.808-1.122 2.184-4.679 2.994-7.797.187-.754.062-1.249.435-1.748v.126c.873 1.745 1.75 3.426 2.56 5.18 1.937 3.054 5.304 6.237 8.115 8.357 1.493 1.127 2.68 3.059 4.552 3.747v-.188h-.123c-.376-.56-.936-.812-1.436-1.247-1.123-1.124-2.368-2.497-3.245-3.744-2.62-3.494-4.932-7.365-6.987-11.358-1.001-1.94-1.873-4.06-2.685-5.992-.373-.746-.373-1.872-.999-2.246-.938 1.372-2.308 2.56-2.993 4.239-1.187 2.686-1.31 5.993-1.75 9.427-.249.065-.123 0-.249.124-1.994-.5-2.681-2.558-3.432-4.3-1.872-4.436-2.186-11.55-.561-16.668.435-1.308 2.312-5.426 1.56-6.674-.377-1.191-1.624-1.871-2.31-2.811-.809-1.185-1.687-2.68-2.243-3.993-1.5-3.494-2.252-7.364-3.87-10.857-.749-1.626-2.062-3.311-3.12-4.806-1.188-1.685-2.497-2.87-3.434-4.865-.31-.688-.747-1.812-.25-2.559.123-.5.376-.688.876-.813.807-.687 3.119.185 3.928.56 2.311.933 4.246 1.812 6.178 3.12.874.625 1.81 1.81 2.932 2.125h1.313c1.996.434 4.244.122 6.117.686 3.305 1.06 6.3 2.62 8.985 4.305 8.172 5.18 14.912 12.545 19.465 21.343.751 1.433 1.066 2.745 1.751 4.24 1.31 3.064 2.935 6.184 4.243 9.176 1.31 2.934 2.56 5.926 4.435 8.364.933 1.308 4.678 1.995 6.364 2.682 1.245.56 3.182 1.06 4.306 1.745 2.122 1.308 4.239 2.808 6.239 4.246.996.749 4.117 2.307 4.305 3.557" fill="#2c7493"/><path d="M20.864 15.431a9.995 9.995 0 0 0-2.559.313v.126h.122c.504.996 1.378 1.688 1.997 2.56.503.998.94 1.993 1.439 2.993.06-.061.121-.127.121-.127.88-.621 1.316-1.618 1.316-3.118-.377-.44-.436-.874-.75-1.312-.374-.623-1.186-.935-1.686-1.435" fill="#5b85a4"/></svg>