<svg viewBox="0 0 268 306" xmlns="http://www.w3.org/2000/svg"><path d="M126.616 303.746a14.405 14.405 0 0 0 14.415 0L260.46 234.83a14.416 14.416 0 0 0 7.215-12.494V84.398c0-5.154-2.75-9.912-7.208-12.493L141.04 2.933a14.437 14.437 0 0 0-14.432 0L7.212 71.905A14.432 14.432 0 0 0 0 84.398v137.946c0 5.15 2.75 9.91 7.215 12.485l119.4 68.916" fill="#76d04b"/><path d="m211.156 120.46-5.326-3.065c8.19-12.08 13.084-30.242 6.947-57.395 0 0-13.82 38.733-41.602 37.45l-32.53-18.72a8.48 8.48 0 0 0-3.992-1.16h-.75a8.616 8.616 0 0 0-4.004 1.16L97.366 97.45C69.587 98.737 55.762 60 55.762 60c-6.14 27.152-1.238 45.314 6.95 57.395l-5.325 3.066A8.778 8.778 0 0 0 53 128.073l.16 112.363c0 1.568.812 3.02 2.188 3.783a4.188 4.188 0 0 0 4.35 0l43.094-24.676c2.727-1.62 4.385-4.477 4.385-7.6V159.45c0-3.13 1.658-6.032 4.373-7.583L129.9 141.3a8.656 8.656 0 0 1 4.39-1.183c1.493 0 3.028.387 4.357 1.182l18.344 10.567c2.716 1.55 4.38 4.453 4.38 7.582v52.493c0 3.123 1.68 6.002 4.39 7.6l43.083 24.676c1.352.81 3.04.81 4.38 0a4.366 4.366 0 0 0 2.175-3.784l.14-112.363c-.003-3.16-1.66-6.055-4.382-7.612z" fill="#4f4d3f"/></svg>