<svg viewBox="0 0 432.07 445.38" xmlns="http://www.w3.org/2000/svg"><path d="M313.84.012c-16.45-.197-30.834 1.95-41.398 4.207-5.282 1.129-9.603 2.29-12.775 3.236-.471.14-.742.239-1.162.37-9.795-1.719-20.217-2.871-31.713-3.057h-.004c-21.847-.359-40.625 4.937-55.742 13.79-14.927-5.183-45.85-14.117-78.473-12.345-22.67 1.231-47.488 8.15-65.824 27.529C8.413 53.122-1.262 83.127.778 123.928c.563 11.259 3.754 29.625 9.08 53.396s12.783 51.61 22.119 77.006 19.555 48.217 35.521 63.736c7.983 7.76 18.954 14.304 31.922 13.754 9.087-.386 17.282-4.382 24.379-10.23 3.453 4.534 7.13 6.529 10.486 8.366 4.234 2.317 8.354 3.855 12.619 4.922 7.66 1.915 20.761 4.48 36.125 1.853 5.233-.895 10.742-2.574 16.236-5.02.21 6.14.442 12.122.686 18.192v.002c.77 19.2 1.237 36.946 7.005 52.516v.002c.935 2.521 3.468 15.63 13.48 27.195 10.013 11.565 29.654 18.787 52.006 13.996 15.747-3.375 35.814-9.465 49.121-28.412 13.17-18.75 19.11-45.613 20.277-89.201.295-2.343.658-4.37 1.018-6.237l3.127.276.393.017c16.818.766 35.064-1.639 50.307-8.718 13.505-6.267 23.72-12.587 31.154-23.801 1.858-2.804 3.899-6.151 4.453-11.938.554-5.787-2.75-14.828-8.266-19.02-11.03-8.383-17.97-5.2-25.42-3.663-9.83 2.028-16.84 2.608-22.287 2.715 21.441-36.12 36.827-74.469 45.594-108.41 5.178-20.046 8.095-38.506 8.344-54.662.249-16.156-1.073-30.463-10.752-42.83C389.26 11.086 346.739.404 313.835.011zm-.445 37.393c25.785.308 54.636 7.23 76.662 35.375h.002c-.098-.125 2.992 7.256 2.808 19.205-.184 11.949-2.544 28.013-7.16 45.887-9.233 35.747-27.397 78.894-52.578 116.26l-4.379 6.494 1.559 7.676s1.732 6.176 4.863 10.223c.716.925 1.552 1.838 2.451 2.736-1.922-.183-3.822-.376-6.123-.229-6.034.386-15.136 4.542-19.357 10.564-8.442 12.045-6.126 18.933-7.504 30.406l18.555 2.227-18.682-.453c-.998 41.119-7.489 61.31-13.549 69.938s-12.293 10.328-26.355 13.342c-13.315 2.853-13.769.55-15.898-1.908-2.128-2.46-3.78-7.874-6.685-15.711v-.002c-1.91-5.156-3.966-22.558-4.707-41.023-.359-8.95-.443-20.37-1.178-30.76-.367-5.196-.853-10.103-1.914-15.016s-.875-10.522-9.63-17.527l5.038 14.914-26.885-12.408c.06-.068.086-.116.147-.184l5.898-6.592-1.355-8.74c-.342-2.203-.341-3.166-.227-4.338l4.504-46.104-31.061 26.49c-5.176-.41-10.042-2.19-14.514-5.16l-13.082-8.691-10.818 11.385s-18.963 19.94-38.695 43.674c-4.552 5.471-6.17 5.128-5.711 5.109.46-.02-.678.284-4.271-3.209-7.187-6.986-17.991-26.714-26.486-49.822-8.496-23.108-15.675-49.726-20.73-72.279s-7.985-42.379-8.22-47.088c-1.714-34.262 5.969-52.242 15.785-62.617C63.729 49.074 77.856 44.468 94.6 43.558c33.488-1.82 71.629 13.102 71.629 13.102l9.894 4.076 8.528-6.467c9.848-7.47 22.393-12.422 41.527-12.107h.004c11.445.185 21.387 1.31 30.059 3.11l3.587.744 6.997-1.291 1.38-.748c.504-.17 1.164-.388 2.149-.682 2.269-.677 5.672-1.596 9.902-2.5 8.46-1.808 20.246-3.538 33.14-3.385zm93.422 252.15c1.642-.052 1.813.61 0 0zm-254.84 7.19c.038.027.225.357.277.407l-.012-.004c-.447-.244-.551-.613-.265-.404z"/><path d="M402.4 271.23c-50.302 10.376-53.76-6.655-53.76-6.655 53.111-78.808 75.313-178.84 56.153-203.33-52.27-66.785-142.75-35.2-144.26-34.38l-.486.087c-9.938-2.063-21.06-3.292-33.56-3.496-22.761-.373-40.026 5.967-53.127 15.902 0 0-161.41-66.495-153.9 83.63 1.597 31.938 45.776 241.66 98.471 178.31 19.26-23.163 37.869-42.748 37.869-42.748 9.243 6.14 20.308 9.272 31.908 8.147l.901-.765c-.28 2.876-.152 5.689.361 9.019-13.575 15.167-9.586 17.83-36.723 23.416-27.459 5.659-11.328 15.734-.796 18.367 12.768 3.193 42.307 7.716 62.266-20.224l-.796 3.188c5.319 4.26 9.054 27.711 8.428 48.969-.626 21.259-1.044 35.854 3.147 47.254s8.368 37.05 44.042 29.406c29.809-6.388 45.256-22.942 47.405-50.555 1.525-19.631 4.976-16.729 5.194-34.28l2.768-8.309c3.192-26.611.507-35.196 18.872-31.203l4.463.392c13.517.615 31.208-2.174 41.591-7 22.358-10.376 35.618-27.7 13.573-23.148z" fill="#336791"/><path d="m309.9 11.85-.002.002c-15.561.145-29.087 2.472-38.441 4.658-4.677 1.093-8.306 2.152-10.648 2.902-1.172.376-1.99.66-2.588.89-.15.056-.282.107-.463.185-.09.038-.187.08-.363.168l-.004.002c-9.61-2.387-19.959-3.871-31.172-4.055-22.134-.363-39.869 5.45-53.63 14.8-6.764-2.61-33.284-12.204-64.23-13.661h-.003c-5.087-.24-10.257-.246-15.434.05-20.707 1.188-41.968 7.401-57.469 23.82-15.5 16.42-24.522 42.443-22.59 81.064.454 9.076 3.558 27.933 8.793 51.299 5.236 23.366 12.6 50.8 21.656 75.434s19.471 46.423 32.512 59.098c6.52 6.337 14.215 10.6 22.707 10.24 8.492-.36 16.558-5.346 23.822-14.078a6.233 6.233 0 0 0 0-.002c17.316-20.831 31.517-35.836 34.32-38.785 7.493 4.035 15.86 6.409 24.668 6.627.015.202.039.405.05.607-5.21 6.108-7.471 9.67-9.95 11.645-2.854 2.274-7.5 4.144-20.818 6.887a6.233 6.233 0 0 0-.002 0c-7.341 1.513-12.194 3.164-15.871 6.162-1.839 1.5-3.448 3.58-4.04 6.146-.591 2.567.028 5.197 1.04 7.073 2.023 3.75 5.041 5.665 8.162 7.373a41.243 41.243 0 0 0 9.656 3.761c6.81 1.705 18.23 3.846 31.002 1.66 9.42-1.611 19.593-5.768 28.666-13.966-.135 16.684.064 32.77.66 46.666.437 10.185 1.068 19.219 1.916 26.598.848 7.378 1.745 12.893 3.455 17.172a6.233 6.233 0 0 0 0 .002c2.476 6.188 6.616 16.262 15.662 23.883 9.047 7.62 23.087 12.064 42.33 7.941a6.233 6.233 0 0 0 .002-.002c15.557-3.335 27.092-8.453 35.275-16.959 8.183-8.505 12.454-19.844 14.916-34.125v-.002c2.875-16.658 7.666-55.219 9.918-76.133.068.022.13.057.198.078 5.288 1.644 11.522 2.166 18.264 2.092 13.483-.148 28.653-2.728 39.254-7.648h.001c11.951-5.55 21.292-12.277 26.006-19.387 1.179-1.778 2.186-3.657 2.434-6.235.248-2.577-1.052-6.127-3.393-7.908-4.681-3.562-9.2-2.654-15.355-1.383-24.463 5.05-36.736 3.134-42.102.912-1.318-.545-2.23-1.088-2.875-1.566 25.757-39.185 44.005-82.875 53.691-120.38 4.991-19.322 7.724-36.984 7.952-51.738.228-14.754-1.683-26.75-8.102-34.953-28.54-36.47-68.32-45.221-99.443-44.932zm-49.996 8.191c.09-.003.588.308.861.422a6.233 6.233 0 0 0-2.28-.203c-.02.006-.037.003.23-.06.133-.032.1-.12 1.189-.159zm4.736 2.323c.086.047.528.258.528.258s-.01.116-.016.216l-.156-.05a6.233 6.233 0 0 0-.356-.424zm45.373 1.95c28.76-.266 63.818 7.316 89.516 40.15 3.16 4.04 5.662 13.729 5.455 27.08-.206 13.353-2.753 30.216-7.556 48.813-8.923 34.545-25.617 75.117-48.855 111.74-.701-.854-1.418-1.734-2.14-2.621 8.824-14.626 10.371-29.522 9.702-43.078-.71-14.413-3.583-27.613-3.218-38.854a6.233 6.233 0 0 0 0-.002 6.233 6.233 0 0 0 0-.002c.496-15.575 4.637-26.527 4.039-42.914.007-.029.022-.068.029-.096.298-1.239.248-1.957.209-2.68-.078-1.444-.338-2.77-.729-4.378-.781-3.216-2.15-7.35-4.195-12.266-4.092-9.832-10.889-22.676-21.01-35.615-12.307-15.733-29.739-31.58-52.898-41.801 8.374-1.739 19.3-3.366 31.652-3.48zm-83.998 4.75c46.62.765 76.79 24.388 95.426 48.212 9.318 11.912 15.635 23.87 19.32 32.725 1.087 2.611 1.48 4.182 2.117 6.146-22-2.226-36.622 1.743-44.985 11.312-9.434 10.794-8.894 26.065-5.21 40.838 3.685 14.773 10.793 29.95 17.315 42.467 3.26 6.259 6.383 11.84 8.853 16.27 2.47 4.43 4.367 7.986 4.77 8.961 3.767 9.135 8.57 15.613 12.344 20.38 1.945 2.456 3.445 4.469 4.51 6.011-1.365.4-3.01.942-4.753 1.727-3.536 1.592-7.608 4.528-10.25 9.37-2.565 4.702-3.752 10.87-3.384 18.88-.822 10.763-7.562 67.106-10.918 86.549a6.233 6.233 0 0 0 0 .002c-2.244 13.013-5.748 21.505-11.615 27.604-5.868 6.098-14.658 10.357-28.906 13.412-16.433 3.52-25.418-.002-31.69-5.286-6.271-5.282-9.743-13.049-12.114-18.979v-.001c-.712-1.782-1.849-7.044-2.645-13.97-.796-6.925-1.42-15.724-1.848-25.708-.857-19.968-.946-44.703-.257-69.33a6.233 6.233 0 0 0-.29-2.032 26.32 26.32 0 0 0-1.394-5.57c-2.341-6.317-6.72-11.844-13.061-14.473a6.233 6.233 0 0 0-.002 0c-2.074-.86-5.567-2.38-10.02-1.99-.805.07-1.62.236-2.44.445 1.3-5.292 3.554-11.599 6.204-18.74v.004c6.304-16.964 23.423-39.431 10.363-99.828-2.721-12.58-10.234-20.897-19.332-24.41-4.55-1.757-9.33-2.466-14.137-2.469l.002-.002c-4.808-.002-9.641.704-14.297 1.778-9.313 2.148-18.015 5.879-24.641 9.568-.11.06-.205.121-.313.182.909-11.237 3.267-28.036 9.594-44.801 5.426-14.38 13.667-28.41 25.97-38.654 12.305-10.244 28.66-16.976 51.714-16.598zm-125.34.974c24.176-.014 47.88 6.52 60.555 10.658-11.6 11.376-19.34 25.392-24.559 39.219-11.78 31.217-10.99 62.038-10.975 62.637a6.233 6.233 0 0 0 0 .002l-.002.207a6.233 6.233 0 0 0 .01.029c-.002 4.083.706 10.88.93 20.848.227 10.134-.029 22.948-1.944 36.64-3.283 23.479 5.989 45.112 21.598 58.468-4.252 4.497-17.092 18.187-33.52 37.953-5.909 7.102-10.75 9.421-14.767 9.592-4.016.17-8.431-1.808-13.488-6.723-10.114-9.83-20.724-30.59-29.5-54.461s-16.049-50.899-21.193-73.859c-5.144-22.96-8.163-42.299-8.507-49.191a6.233 6.233 0 0 0 0-.002c-1.823-36.44 6.532-58.46 19.205-71.885C57.19 36.746 74.9 31.313 93.635 30.238c2.341-.134 4.692-.198 7.04-.2zm232.55 97.959c3.352.062 7.205.417 11.305.923-.25 12.242-3.569 22.4-4.074 38.227-.439 13.507 2.586 26.842 3.229 39.87.52 10.545-.305 20.693-5.203 30.995-1.163-2.062-2.298-4.252-3.338-6.773-1.107-2.683-2.93-5.833-5.407-10.275-2.476-4.442-5.527-9.9-8.685-15.959-6.315-12.119-13.024-26.7-16.273-39.727-3.25-13.027-2.76-23.601 2.498-29.617 3.944-4.512 11.73-7.93 25.949-7.664zm-155.3 2.119c3.61.002 6.932.499 9.711 1.572 5.558 2.146 9.598 5.982 11.64 15.416 12.491 57.771-2.328 72.561-9.868 92.85a6.233 6.233 0 0 0 0 .004c-2.583 6.961-5.18 13.545-6.754 20.053-27.047-.037-50.052-26.294-45.617-58.006 2.041-14.595 2.298-28.07 2.06-38.646-.217-9.67-.76-16.234-.853-18.945.169-.153.169-.18.397-.365 1.35-1.098 3.645-2.644 6.474-4.22 5.66-3.15 13.528-6.5 21.38-8.312 3.925-.905 7.821-1.4 11.431-1.398v-.002zm169.82 143.13a24.27 24.27 0 0 0 6.168 3.687c8.94 3.701 23.55 5.11 49.387-.223-3.814 3.448-10.087 7.976-17.459 11.398-7.744 3.594-22.31 6.363-34.145 6.493-5.917.065-11.24-.542-14.426-1.531-1.517-.472-2.404-1.016-2.732-1.274-.294-6.44.712-10.208 1.879-12.346 1.202-2.203 2.545-3.127 4.426-3.974 1.88-.848 4.125-1.25 6.859-2.213l.043-.018zm-149.33 1.765c.986-.086 2.206.277 4.164 1.088 2.009.833 4.861 3.826 6.145 7.29 1.283 3.463 1.11 6.702-.443 8.876a6.233 6.233 0 0 0-.002.002c-9.042 12.661-19.63 17.53-29.81 19.271-10.18 1.741-19.912.024-25.87-1.467a6.233 6.233 0 0 0-.002 0c-2.088-.522-4.692-1.507-6.7-2.605-.819-.448-.764-.531-1.294-.961 1.671-.783 4.168-1.748 8.537-2.648 13.82-2.846 20.745-5.102 26.074-9.348 5.329-4.247 7.57-8.796 14.035-16.018a6.233 6.233 0 0 0 .004-.004c2.745-3.073 4.175-3.39 5.162-3.477z" fill="#fff"/><path d="M179.71 137.03c-.33-.006-.656-.006-.977.002-1.282.031-2.48.176-3.558.432-1.079.255-2.047.612-2.899 1.2-.359.25-.687.594-.984.964h-.582l-.252 1.787v.01c-.18 1.293.23 2.258.756 3.275.528 1.02 1.274 2.05 2.21 3.033 1.874 1.967 4.533 3.786 7.78 4.236 3.244.453 6.167-.628 8.309-2.08 1.07-.725 1.962-1.548 2.65-2.404s1.222-1.694 1.383-2.846c.17-1.224-.34-2.348-.998-3.148-.658-.8-1.493-1.41-2.461-1.951-1.936-1.082-4.449-1.865-7.287-2.26h-.002a26.016 26.016 0 0 0-3.088-.25z" fill="#fff"/><path d="M324.76 133.91a24.93 24.93 0 0 0-2.967.238c-2.728.38-5.141 1.144-6.922 2.139-.89.497-1.627 1.05-2.166 1.703-.539.654-.895 1.475-.777 2.342v.004c.117.83.552 1.573 1.168 2.338.615.764 1.435 1.526 2.424 2.195 1.976 1.339 4.654 2.319 7.586 1.91 2.935-.407 5.421-2.087 7.17-3.924.874-.918 1.565-1.879 2.039-2.793.447-.863.715-1.667.64-2.515l.022-.002v-.002l-.022.002c-.004-.05.019-.095.012-.145-.12-.866-.688-1.56-1.385-2.04-.696-.482-1.555-.813-2.547-1.048-.992-.235-2.12-.37-3.341-.4a21.645 21.645 0 0 0-.934-.002z" fill="#fff"/></svg>