<svg stroke-linecap="round" stroke-width="10" viewBox="0 0 210 210" xmlns="http://www.w3.org/2000/svg"><path d="M5 5h120M5 45h70m80 0h10M45 65h10m30 40h80M5 125h40M5 185h20" stroke="#56b3b4"/><path d="M145 5h60m-30 20h30m-20 20h20M75 65h30m90 0h10M75 85h30m90 0h10m-20 20h20m-30 20h30m-60 20h20m20 0h20M75 165h20m20 0h90M75 185h40m20 0h10m20 0h40M75 205h60m20 0h50" stroke="#e7e9eb"/><path d="M5 25h30m90 40h50M5 105h10m50 20h40M5 205h50" stroke="#ea5e5e"/><path d="M55 25h100M5 65h20m100 20h50M35 105h30m-30 40h90m-80 40h10" stroke="#f7b93e"/><path d="M95 45h40M5 85h50m70 40h30M5 145h10M5 165h50" stroke="#bf85bf"/></svg>