<svg viewBox="0 0 111.161 112.389" xmlns="http://www.w3.org/2000/svg"><defs><linearGradient id="a" x1="0" x2="61.34" y1="0" y2="53.29" gradientUnits="userSpaceOnUse"><stop stop-color="#5a9fd4" offset="0"/><stop stop-color="#306998" offset="1"/></linearGradient><linearGradient id="b" x1="69.94" x2="48.03" y1="97.56" y2="66.27" gradientUnits="userSpaceOnUse"><stop stop-color="#ffd43b" offset="0"/><stop stop-color="#ffe873" offset="1"/></linearGradient></defs><path d="M54.919 0c-4.584.022-8.96.413-12.812 1.095-11.346 2.004-13.406 6.2-13.406 13.937V25.25h26.812v3.406H18.638c-7.792 0-14.616 4.684-16.75 13.594-2.462 10.213-2.571 16.586 0 27.25 1.906 7.938 6.458 13.594 14.25 13.594h9.219v-12.25c0-8.85 7.657-16.656 16.75-16.656h26.78c7.456 0 13.407-6.138 13.407-13.625V15.033c0-7.266-6.13-12.725-13.406-13.937C64.282.329 59.503-.02 54.918.002zm-14.5 8.22c2.77 0 5.031 2.298 5.031 5.125 0 2.816-2.262 5.094-5.031 5.094-2.78 0-5.031-2.278-5.031-5.094 0-2.827 2.252-5.125 5.031-5.125z" fill="url(#a)"/><path d="M85.638 28.657v11.906c0 9.23-7.826 17-16.75 17H42.107c-7.336 0-13.406 6.279-13.406 13.625v25.531c0 7.266 6.319 11.54 13.406 13.625 8.487 2.496 16.626 2.947 26.781 0 6.75-1.954 13.406-5.888 13.406-13.625V86.5H55.513v-3.406h40.188c7.793 0 10.696-5.436 13.406-13.594 2.8-8.4 2.68-16.476 0-27.25-1.926-7.758-5.604-13.594-13.406-13.594zM70.576 93.313c2.78 0 5.031 2.277 5.031 5.094 0 2.826-2.252 5.125-5.031 5.125-2.77 0-5.031-2.299-5.031-5.125 0-2.817 2.262-5.094 5.031-5.094z" fill="url(#b)"/></svg>