<svg fill="#ec5990" viewBox="0 0 150 150" xmlns="http://www.w3.org/2000/svg"><rect height="150" rx="20" width="150"/><path d="M98.56 38.32H83.14a8.54 8.54 0 0 0-16.27 0H51.44c-6.075 0-11 4.925-11 11v57.31c0 6.075 4.925 11 11 11h47.12c6.075 0 11-4.925 11-11V49.32c0-6.075-4.925-11-11-11zm-30.92 2a1 1 0 0 0 1-.79 6.54 6.54 0 0 1 12.78 0 1 1 0 0 0 1 .79h5.38v6.55a3 3 0 0 1-3 3H65.25a3 3 0 0 1-3-3v-6.55zm39.92 66.31a9 9 0 0 1-9 9H51.44a9 9 0 0 1-9-9V49.32a9 9 0 0 1 9-9h8.81v6.55a5 5 0 0 0 5 5h19.5a5 5 0 0 0 5-5v-6.55h8.81a9 9 0 0 1 9 9zM96.6 71H79a1 1 0 0 0 0 2h17.6a1 1 0 0 0 0-2zM70.6 71H53a1 1 0 0 0 0 2h17.6a1 1 0 0 0 0-2zM96.65 94H79a1 1 0 0 0 0 2h17.65a1 1 0 0 0 0-2zM70.65 94H53a1 1 0 0 0 0 2h17.65a1 1 0 0 0 0-2z" fill="#fff"/></svg>