<svg fill="#cc499c" viewBox="0 0 348.06 414.12" xmlns="http://www.w3.org/2000/svg"><path d="M119.67 298.58c3.985 14.742 3.548 28.488-.568 40.938a67.161 67.161 0 0 1-3.281 8.104c-3.175 6.587-7.435 12.752-12.652 18.442-15.915 17.363-38.151 23.928-47.685 18.396-10.296-5.968-5.139-30.448 13.313-49.952 19.851-20.985 48.412-34.477 48.412-34.477l-.044-.085a298.12 298.12 0 0 0 2.505-1.366zM345.92 50.66c-12.404-48.648-93.068-64.64-169.41-37.518-45.433 16.14-94.618 41.474-129.98 74.554C4.481 127.026-2.225 161.258.539 175.562c9.749 50.472 78.905 83.463 107.33 107.94v.148c-8.382 4.126-69.738 35.177-84.097 66.921-15.15 33.489 2.412 57.521 14.039 60.756 36.025 10.023 72.993-8.005 92.86-37.639 19.172-28.597 17.576-65.525 9.244-83.894 11.493-3.032 24.892-4.391 41.92-2.402 48.049 5.612 57.477 35.615 55.674 48.168-1.801 12.558-11.88 19.462-15.249 21.546-3.371 2.085-4.399 2.806-4.115 4.356.408 2.253 1.968 2.169 4.842 1.682 3.954-.667 25.23-10.213 26.139-33.39 1.159-29.427-27.041-62.344-76.973-61.484-20.564.355-33.494 2.311-42.834 5.787a96.02 96.02 0 0 0-2.12-2.344c-30.869-32.935-87.935-56.232-85.515-100.51.88-16.096 6.475-58.481 109.65-109.9 84.52-42.114 152.18-30.525 163.87-4.84 16.703 36.695-36.161 104.9-123.94 114.74-33.442 3.749-51.05-9.212-55.43-14.039-4.612-5.081-5.298-5.311-7.02-4.357-2.805 1.553-1.028 6.04 0 8.714 2.62 6.82 13.375 18.915 31.71 24.931 16.128 5.293 55.392 8.201 102.88-10.165 53.18-20.572 94.708-77.796 82.511-125.63"/></svg>