<svg viewBox="0 0 190 170" xmlns="http://www.w3.org/2000/svg"><path d="M150.28 51.344c3.093-14.981 3.756-26.471 1.757-34.814-1.189-4.962-3.362-9.01-6.668-11.931-3.489-3.083-7.901-4.596-12.858-4.596-8.178 0-16.775 3.725-25.963 10.802-3.747 2.886-7.636 6.366-11.676 10.44a8.731 8.731 0 0 0-1.09-1.164C82.362 9.915 72.748 3.599 64.525 1.164c-4.89-1.448-9.48-1.586-13.66-.181-4.412 1.483-7.928 4.55-10.409 8.845-4.094 7.089-5.173 16.403-3.647 27.904.622 4.688 1.686 9.794 3.189 15.327a8.728 8.728 0 0 0-1.698.38c-14.49 4.797-24.75 9.954-30.96 15.85-3.696 3.506-6.11 7.41-6.982 11.733-.92 4.562-.023 9.137 2.455 13.43 4.086 7.078 11.6 12.66 22.304 17.082 4.298 1.776 9.161 3.384 14.594 4.83a8.731 8.731 0 0 0-.569 1.776c-3.093 14.981-3.756 26.471-1.757 34.814 1.189 4.962 3.363 9.01 6.668 11.931 3.49 3.083 7.901 4.596 12.859 4.596 8.178 0 16.775-3.725 25.962-10.802 3.787-2.917 7.72-6.44 11.805-10.57a8.71 8.71 0 0 0 1.547 1.81c11.42 10.166 21.034 16.482 29.257 18.917 4.89 1.448 9.48 1.586 13.66.181 4.414-1.483 7.93-4.55 10.41-8.845 4.094-7.089 5.174-16.403 3.648-27.904-.645-4.857-1.764-10.164-3.354-15.929a8.732 8.732 0 0 0 1.863-.398c14.489-4.797 24.749-9.955 30.96-15.849 3.696-3.507 6.109-7.412 6.98-11.734.922-4.562.024-9.137-2.453-13.429-4.087-7.078-11.6-12.66-22.304-17.083-4.427-1.828-9.452-3.479-15.082-4.958a8.72 8.72 0 0 0 .47-1.544z" fill="#002c4b"/><path d="M80.397 54h29.211a5 5 0 0 1 4.337 2.511l14.632 25.5a5 5 0 0 1 0 4.978l-14.632 25.5a5 5 0 0 1-4.337 2.511H80.397a5 5 0 0 1-4.337-2.511l-14.632-25.5a5 5 0 0 1 0-4.978l14.632-25.5A5 5 0 0 1 80.397 54zm25.591 6.277a5 5 0 0 1 4.338 2.513l11.017 19.223a5 5 0 0 1 0 4.973l-11.017 19.223a5 5 0 0 1-4.338 2.514H84.017a5 5 0 0 1-4.338-2.514L68.662 86.986a5 5 0 0 1 0-4.973L79.679 62.79a5 5 0 0 1 4.338-2.513zm-3.907 6.864H87.925a5 5 0 0 0-4.336 2.51l-7.1 12.359a5 5 0 0 0 0 4.981l7.1 12.36a5 5 0 0 0 4.336 2.509h14.156a5 5 0 0 0 4.335-2.51l7.1-12.359a5 5 0 0 0 0-4.981l-7.1-12.36a5 5 0 0 0-4.335-2.509zm-3.762 6.571a5 5 0 0 1 4.334 2.506l3.33 5.788a5 5 0 0 1 0 4.988l-3.33 5.788a5 5 0 0 1-4.334 2.506h-6.633a5 5 0 0 1-4.334-2.506l-3.33-5.788a5 5 0 0 1 0-4.988l3.33-5.788a5 5 0 0 1 4.334-2.506zm-3.315 6.473a4.313 4.313 0 1 0-.002 8.63 4.313 4.313 0 1 0 .002-8.63zM60 84.5h7.768" fill="#ffd94c" fill-rule="evenodd"/><path d="M54.86 98.358a2.713 2.713 0 0 1 3.718 1.042l.474.844a269.463 269.463 0 0 0 11.888 19.192c4.868 7.15 10.341 14.389 16.422 21.716a2.776 2.776 0 0 1-.296 3.847l-.612.536c-20.108 17.57-33.176 21.078-39.206 10.528-5.898-10.32-3.763-29.079 6.403-56.279a2.748 2.748 0 0 1 1.21-1.425zm85.674 20.684a2.708 2.708 0 0 1 3.125 2.153l.154.792c4.97 26.009 1.47 39.014-10.497 39.014-11.706 0-26.607-11.091-44.703-33.273a2.725 2.725 0 0 1-.613-1.746 2.712 2.712 0 0 1 2.73-2.693l.955.007a263.22 263.22 0 0 0 22.226-.794c8.498-.673 17.373-1.826 26.623-3.46zm6.875-55.23c.523-1.41 2.1-2.148 3.545-1.663l.788.266c25.841 8.803 35.66 18.476 29.456 29.021-6.068 10.315-23.714 17.824-52.937 22.527a2.852 2.852 0 0 1-1.879-.344 2.726 2.726 0 0 1-.993-3.772l.5-.837c3.988-6.694 7.592-13.356 10.813-19.986 3.803-7.83 7.372-16.234 10.707-25.212zm-85.67-7.776a2.852 2.852 0 0 1 1.878.345 2.726 2.726 0 0 1 .994 3.772l-.5.837c-3.988 6.694-7.592 13.356-10.813 19.986-3.803 7.83-7.372 16.234-10.707 25.212-.524 1.409-2.1 2.148-3.546 1.663l-.788-.267c-25.841-8.802-35.66-18.476-29.456-29.02 6.068-10.316 23.714-17.825 52.937-22.528zm41.807-31.57c20.108-17.57 33.176-21.079 39.206-10.529 5.898 10.32 3.763 29.08-6.404 56.28a2.748 2.748 0 0 1-1.209 1.425 2.713 2.713 0 0 1-3.717-1.042l-.475-.844a269.463 269.463 0 0 0-11.888-19.192c-4.867-7.15-10.34-14.39-16.422-21.716a2.776 2.776 0 0 1 .297-3.847zM57.684 8C69.39 8 84.29 19.091 102.387 41.273c.4.492.618 1.11.612 1.746a2.712 2.712 0 0 1-2.73 2.694l-.954-.007c-7.621-.042-15.03.223-22.226.793-8.499.674-17.373 1.827-26.623 3.46a2.708 2.708 0 0 1-3.126-2.153l-.153-.792C42.217 21.005 45.717 8 57.684 8z" fill="#ff4154"/></svg>