<svg viewBox="0 0 177.229 178.941" xmlns="http://www.w3.org/2000/svg"><path d="M2.553.078A2 2 0 0 0 .058 2.48l43.213 174.94a2 2 0 0 0 3.328.962L176.615 53.316a2 2 0 0 0-.832-3.363zm2.218 4.801 36.93 10.633-27.707 26.707zm39.68 13.453 9.154 36.742L17.25 44.367zm3.992-.879 36.266 10.442-27.225 26.209zm39.028 13.334 9.017 36.543-36.185-10.389zm3.877-.98 36.377 10.472-27.299 26.313zm39.205 13.302 9.064 36.741-36.355-10.436zm3.898-.892 36.893 10.621-27.698 26.642zM15.496 48.295l36.992 10.619-27.767 26.729zm39.781 13.486 9.231 37.418L27.49 88.531zm3.871-1.01 36.354 10.436-27.289 26.305zM98.18 74.184l9.224 37.377-36.953-10.649zm3.884-.952 37.028 10.629-27.805 26.746zM26.385 92.377l36.33 10.469-27.254 26.273zm39.613 12.861 9.064 36.742-36.355-10.435zm4.049-.279 36.254 10.445-27.217 26.18zm-33.082 30.246 37.547 10.777-28.188 27.116z"/></svg>