<svg viewBox="0 0 27.596 27.595" xmlns="http://www.w3.org/2000/svg"><path d="M22.47 3.066A13.74 13.74 0 0 0 13.799 0a13.74 13.74 0 0 0-8.673 3.066z"/><path d="M.785 9.198c.386-1.091.905-2.12 1.538-3.066h22.95a13.75 13.75 0 0 1 1.537 3.066z"/><path d="M.084 15.33a13.95 13.95 0 0 1 0-3.065h27.427a13.958 13.958 0 0 1 0 3.066H.084z"/><path d="M2.323 21.463a13.747 13.747 0 0 1-1.538-3.066H26.81a13.75 13.75 0 0 1-1.538 3.066z"/><path d="M22.47 24.53a13.74 13.74 0 0 1-8.672 3.065 13.74 13.74 0 0 1-8.673-3.066H22.47z"/></svg>