<svg fill="#398ccb" viewBox="0 0 512 512" xmlns="http://www.w3.org/2000/svg"><rect height="512" rx="150" width="512"/><path d="m255.446 75 71.077 41.008v22.548l86.031 49.682v84.986l23.077 13.322v82.062L364.6 409.615l-31.535-18.237-76.673 44.268-76.214-44.012-31.093 17.981-71.031-41.077v-81.992l22.177-12.803v-85.505l84.184-48.6.047-.002v-23.628Zm71.077 84.879v38.144l-71.031 41.008-71.03-41.008v-37.087l-.047.002-65.723 37.962v64.184l30.393-17.546 71.03 41.008v81.992l-21.489 12.427 57.766 33.358 58.226-33.611-21.049-12.174v-81.992l71.031-41.008 29.492 17.027V198.9Zm-14.492 148.036v50.054l43.338 25.016v-50.054Zm105.138-.069-43.338 25.016v50.123l43.338-25.085Zm-320.654 0V357.9l43.339 25.015v-50.053Zm105.139 0-43.339 25.016v50.053l43.339-25.015Zm119.608-15.923 43.338 25.039 43.338-25.039-43.338-25.015Zm-172.177-25.085-43.339 25.085 43.339 24.969 43.338-24.969Zm53.838-129.53v50.054l43.292 25.015v-50.031Zm105.092 0-43.292 25.038v50.008l43.292-24.992Zm-95.861-15.97 43.292 25.016 43.339-25.016-43.339-25.015Z" fill="#fff"/></svg>