<svg viewBox="0 0 391.69 392.19" xmlns="http://www.w3.org/2000/svg"><defs><linearGradient gradientUnits="userSpaceOnUse" id="a" x1="-3.244" x2="225.756" y1="31.522" y2="342.522"><stop stop-color="#41d1ff" offset="0"/><stop stop-color="#bd34fe" offset="1"/></linearGradient><linearGradient gradientUnits="userSpaceOnUse" id="b" x1="185.406" x2="226.836" y1="7.34" y2="291.512"><stop stop-color="#ffea83" offset="0"/><stop stop-color="#ffdd35" offset=".083"/><stop stop-color="#ffa800" offset="1"/></linearGradient></defs><path d="m390.4 58.047-184 329.02c-3.799 6.793-13.559 6.833-17.415.073L1.335 58.08c-4.2-7.367 2.098-16.29 10.446-14.798l184.19 32.924c1.175.21 2.378.208 3.553-.006l180.34-32.87c8.32-1.517 14.649 7.337 10.522 14.719z" fill="url(#a)"/><path d="m283.72.097-136.16 26.68a5 5 0 0 0-4.03 4.612l-8.376 141.46c-.197 3.332 2.863 5.918 6.115 5.168l37.91-8.75c3.547-.817 6.752 2.307 6.023 5.874l-11.263 55.153c-.758 3.712 2.727 6.886 6.352 5.785l23.415-7.114c3.63-1.102 7.118 2.08 6.35 5.796l-17.899 86.633c-1.12 5.419 6.088 8.374 9.094 3.728l2.008-3.103 110.95-221.43c1.858-3.708-1.346-7.935-5.418-7.15l-39.022 7.532c-3.667.707-6.787-2.708-5.752-6.296l25.469-88.29c1.036-3.595-2.095-7.013-5.766-6.293z" fill="url(#b)"/></svg>