<svg viewBox="0 0 478.14 469.51" xmlns="http://www.w3.org/2000/svg"><path d="M337.28 5.835c10.12-6.32 22.57-6.43 34.04-5.26 8.21 4.01 15.5 10.08 20.36 17.89 1.97 3.22 3.96 6.62 4.43 10.43.38 8.58 1.39 17.24.02 25.78-.38 2.28-2.17 3.92-3.52 5.68 1.02-.03 2.04-.07 3.07-.1 1.69 8.4-2.96 16.17-2.64 24.5-.09 2.33-.29 4.67-.73 6.96-1.51 5.42-3.82 10.57-6.21 15.65-.87 2.13-2.04 4.52-1.27 6.84 5.4 6.31 11.38 12.16 16.21 18.96 6.8 6.77 11.37 15.27 16.51 23.28 2.06 3.51 3.9 7.16 5.59 10.87 3.83-2.53 8.38-3.41 12.55-5.18 2.46-.9 4.92-2.17 7.63-1.94 5.9.16 12.28-.14 17.45 3.22 5.71 3.99 12.8 7.44 15.21 14.51 2.77 5.89 2.29 12.53 1.71 18.83-.56 5.37-3.79 9.86-6.09 14.57-1.99 3.46-3.65 7.41-7.18 9.6-3.77 2.5-7.33 5.3-11.11 7.78-2.57 1.75-5.77 1.92-8.69 2.67-.11 7.5 1.49 14.91 1.07 22.43.65 13.75-1.24 27.46-3.74 40.95-2.21 6.92-2.97 14.25-5.79 20.98-1.88 4.89-2.87 10.1-5.13 14.84-4.19 9.21-8.23 18.56-13.84 27.02-4.77 8.88-10.55 17.19-17.06 24.88-3.6 4.39-6.34 9.63-11.1 12.93-4.6 3.43-7.66 8.37-11.73 12.33-5.52 5.89-12.59 10-18.41 15.57-5.3 5.05-12.17 7.82-18.21 11.82-3.86 2.59-8.41 3.94-12.17 6.73-4.54 3.21-10.16 4.19-14.93 6.95-6.42 3.66-13.42 6.07-20.23 8.86-7.03 3.58-14.84 5.01-22.27 7.52-7.55 1.21-14.96 3.49-22.66 3.44-9.96 1.47-20.04.61-30.05.82-6.35-.02-12.71.23-19.03-.33-10.94-1.45-22.19-.95-32.83-4.19-4.02-1.19-8.42-.03-12.28-1.87-8.56-3.73-17.91-5.08-26.49-8.8-9.91-2.97-18.48-8.89-26.59-15.13-8.51-5.66-18.12-9.59-26.23-15.88-5.49-3.81-9.49-9.3-14.88-13.23-4.53-3.17-6.74-8.48-10.75-12.16-2.62-2.47-4.68-5.44-6.73-8.38-8.73-10.57-16.08-22.27-22.03-34.61-2.44-7.61-6.92-14.38-8.93-22.15-1.8-4.68-4.01-9.23-4.96-14.19-2.16-10.52-5.38-20.91-5.74-31.72-.19-4.66.18-9.33-.12-13.99-.2-3.32-1.17-6.61-.61-9.95 1.17-6.54.37-13.26 1.78-19.77 2.67-13.1 4.35-26.57 9.47-39.01 3.24-8.93 6.93-17.73 11.16-26.24 5.25-7.83 8.46-16.91 14.6-24.15 1.7-2.15 3.79-4.17 4.63-6.85-1.2-8.12-4.86-15.77-4.99-24.05-.38-3.64-2.13-7.07-1.8-10.8.4-5.84-.7-11.71.3-17.51.49-3.02.37-6.12 1.06-9.11 3.7-13.27 8.35-26.64 17.11-37.48 4.17-5.01 9.96-8.19 15.28-11.8 1.97-1.32 4.06-2.79 6.54-2.8 12.03-.47 24.69 1.6 34.76 8.57 7.67 3.68 12.8 10.71 18.28 16.94 3.34 3.73 5.19 8.74 9.41 11.67 1.25.71 2.51 2.06 4.08 1.56 6.09-1.47 11.56-4.8 17.71-6.1 7.99-1.62 15.41-5.28 23.46-6.62 15.15-2.53 30.4-4.7 45.77-5.14 5.89.06 11.72 1 17.6 1.11 13.91.3 27.67 2.87 41.09 6.42 2.18.78 4.31-.04 6.21-1.12-3.85-1.2-7.76-2.25-11.6-3.51 3.51.43 6.83 1.72 10.33 2.22 1.71-2.59 1.59-5.86 2.87-8.63 1.17-2.6 1.83-5.39 3.05-7.96 1.59-.9 3.38-1.36 5.13-1.86-1.62 3.75-2.68 7.71-3.67 11.66 3.02 1.46 6.02 2.97 9.01 4.49 3.98-6.18 6.77-13.38 12.82-17.95 7.48-5.82 14.69-13.14 24.41-14.8 9.3-1.46 19.23 1.4 26.35 7.56 1.98 1.48 2.33 4.05 3.09 6.24 1.08 3.86 4.29 6.81 4.82 10.87 1.22 7.71 1.18 15.63-.39 23.29-.76.13-2.28.39-3.04.51-.72-2.53.19-4.98 1.11-7.32 1.01-2.34.24-4.88-.28-7.24-.06-.25-.19-.74-.26-.98-1.36-2.78-2.93-5.45-4.12-8.31-1.64-4.98-3.06-10.4-6.7-14.32-4.57-3.38-10.46-5.5-16.18-5.01-5.87 1.49-11.44 4.36-15.96 8.41-5.1 4.44-10.91 8.34-14.59 14.16-2.75 4.45-5.95 8.58-8.77 12.98-.26 1.08-.46 2.18-.51 3.29 5.26 3.24 11.49 4.39 16.92 7.32 6.32 3.22 12.25 7.17 18.71 10.16 6.93 3.23 12.39 8.84 19.41 11.93l.72.45c.38-1.2.76-2.39 1.16-3.58.57-.13 1.7-.4 2.27-.53.28 3 0 6.2 1.25 9.01 2.49 3.08 6.23 4.75 9.54 6.8 2.78-5.8 3.92-12.18 5.42-18.39 3.76-17.36 5.75-35.32 3.47-53.02-1.43-6.36-2.1-13.2-5.92-18.69-.68-.97-1.38-1.91-2.11-2.82-4.07-2.98-7.93-6.29-12.33-8.78-6.8-2.9-14.73-2.64-21.66-.24-2.21.69-4.37 1.55-6.46 2.57-5.7 3.13-11.94 5.63-16.6 10.31-4.37 4.24-8.72 8.52-12.66 13.16-2.25 2.2-4.76 4.11-7.28 5.98-.58-1.12-1.16-2.23-1.73-3.35 5.05-6.07 9.9-12.42 16.06-17.43 3.05-2.52 5.27-6.19 9.19-7.52 3.47-1.32 6.35-3.7 9.31-5.88m-273.67 41.3c-4.66 2.19-7.44 6.53-10.28 10.6-3.65 4.8-5.95 10.55-8.05 16.17-.21.63-.64 1.87-.85 2.5l-.05-.83c-.68 2-1.42 4.01-1.75 6.12-3.59 9.16-.43 19.24-3.07 28.54a24.82 24.82 0 0 1 .81 12.45c-.94 4.63 2.26 8.62 3.44 12.88 2.32 5.41 1.76 11.73 4.99 16.77 2.48 3.94 3.24 8.61 5.16 12.81 1.33 2.91 2.62 5.85 3.47 8.95-6.38-1.59-8.12-8.72-11.01-13.73.22-.63.65-1.89.86-2.52-4.13.62-6.28 4.51-7.79 7.98-4.96 5.81-7.86 12.99-11.34 19.71-4.71 10.54-9.21 21.2-12.73 32.21-3.19 11.24-4.55 22.86-6.47 34.36-.41 4.56-.29 9.16-.5 13.74-.55 14.26 1.38 28.46 3.74 42.48 4.23 15.08 8.34 30.34 15.27 44.45 3.08 4.94 5.34 10.38 8.95 14.97 2.56 3.27 3.65 7.44 6.36 10.61 2.62 3.09 4.82 6.5 7.38 9.65 6.03 6.96 14.87 10.43 21.89 16.12 3.32 3.98 7.93 6.28 12.44 8.61 9.38 6.21 19.38 11.38 29.34 16.58 6.02 2.7 12.33 4.75 18.23 7.75 6.61 2.62 12.99 6.2 20.16 7.03 10.52 1.76 20.82 5.92 31.65 5.12 5.02-.3 9.98.77 14.98.96 9.52-.04 19 .9 28.51 1.01 11.91-.61 23.96-.86 35.62-3.67 6.65-1.76 13.56-2.55 20.01-5.06 4.31-1.7 9.13-.89 13.45-2.55.33-.19.99-.57 1.31-.76 3.25-.64 6.31-2 8.88-4.08 4.94-3.95 11.58-4.64 16.63-8.39 6.8-4.9 14.11-9.06 20.61-14.36 4.41-3.69 9.88-5.94 13.85-10.18 5.75-5.97 12.86-10.41 18.43-16.58 8.39-8.93 18.25-16.66 24.84-27.15 4.72-7.48 10.42-14.26 15.33-21.59 2.73-4.14 4.03-9.06 7.08-13.01 2.76-3.52 3.83-7.96 6.26-11.67 2.4-3.73 2.29-8.34 3.66-12.44 1.61-4.94 2.96-10 3.39-15.2.5-6.24 2.06-12.39 1.64-18.68.74-11.38.9-22.96-1.69-34.13-5.31-2.16-10.74-3.99-16.08-6.03-9.99-5.06-14.92-17.04-13.39-27.85.51-3.72.47-7.62 2.17-11.06 2.83-5.87 6.51-11.27 9.82-16.87-4.91-6.36-6.91-14.48-12.37-20.46-7.11-8.27-12.3-18.2-20.75-25.28-7.39-6.62-13.75-14.44-22.08-19.96-4.92-3.41-9.48-7.38-14.84-10.13-5.36-2.8-10.12-6.59-15.54-9.28-6.17-3.09-12.5-5.86-19-8.16-14.57-6.57-30.29-10.13-45.97-12.89-12.13-1.47-24.31-3.26-36.56-2.49-1.13-.2-2.27-.23-3.4-.08-9.36-1.17-18.59 1.22-27.85 2.2-9.13 1.14-18.1 3.22-27.15 4.87-2.17.35-4.26 1.05-6.22 2.04l-.72.16c-5.7.22-11.43 1.64-16.37 4.54-.97.23-1.91.58-2.79 1.05-1.49.42-2.98.83-4.47 1.25.35 2.59 2.78 3.91 3.96 6.05.54 1.61.52 3.33.7 5-5.15-.14-5.92-6.91-10.62-8.11-2.27-.4-4.58-.33-6.86-.41 1.26-1.37 2.53-2.74 3.8-4.11-6.52-9.54-15.38-17-23.77-24.8-2.24-1.75-3.93-5.55-7.26-4.69-3.15-2.88-7.44-3.61-11.48-4.37-1.81-.91-3.59-2.03-5.62-2.37-8.01-.43-16.86 1.34-22.33 7.69m374.5 118.43c-4.49.39-9.57 2.36-11.54 6.67-1.27-1.15-3.11.66-3.14 2.02-3.08 1.94-6.43 3.88-8.37 7.05-.37 2.58-.09 5.2-.03 7.79l-.34.69c-3.16 3.49-3.16 9.18-1.16 13.26.1 3.88.94 8.01 3.73 10.89 3.59 6.32 10.87 9.35 17.57 11.2l1.02.54c6.17 3.35 14.56 1.86 19.27-3.28 3.03-4.29 7.3-7.45 10.36-11.7-.62-.9-1.24-1.79-1.86-2.68 1.59-1.07 3.19-2.13 4.76-3.23l.1-.95c.55-4.24 1.86-8.38 1.58-12.69.04-.53.11-1.58.15-2.11 1.23-2.22.26-4.62-.41-6.84-1.48-1.69-3.16-3.19-4.71-4.82.31-.92.74-1.8 1.14-2.68-4.53-4.82-9.77-10.14-16.77-10.61-3.8-.14-7.98-.69-11.35 1.48z" fill="#191613"/><path d="M398.23 37.575c2.12 9.32 1.9 19.08.1 28.43.5-9.47-.34-18.95-.1-28.43zM80.7 70.165c4.96-2.78 11.19-5.08 16.67-2.32 10.35 3.3 16.75 12.6 23.33 20.6 4.91 5.18 8.94 11.11 12.78 17.1 1.78 2.49 1.51 5.6.57 8.34-.51-1.29-1-2.59-1.47-3.89-1.07-.39-2.15-.78-3.23-1.15-3.15-5.06-7.12-9.5-11.08-13.92-4.54-6.07-11.2-10.45-14.35-17.56-5.99.62-11.29-3.94-17.28-2.84-3.85 1.32-7.35 3.57-10.55 6.06-3.81 2.81-5.36 7.48-7.37 11.57-2.76 5.78-1.86 12.32-2.19 18.5-.45 1.47-1.28 2.81-2.27 3.98-2.29-.46-3.87-2.93-2.95-5.17 1.19-3.39-.24-6.85.05-10.28 1.03-4.13 1.49-8.67 4.32-12.06 2.46-3.23 4.21-7.16 7.83-9.31 3.13-1.83 4.36-5.53 7.19-7.65zm291.91 12.59c1.56.36 3.13.73 4.7 1.09l-1.95 3.87c-1.37-.96-2.74-1.93-4.11-2.89.34-.52 1.02-1.55 1.36-2.07zm-248.56 41.47c-1.02-2.52 1.67-4.21 3.14-5.78 2.62 3.61 4.81 7.95 3.42 12.5-2.74-1.58-5.75-3.43-6.56-6.72zM61 123.045c1.09-2.28 3.74-1.51 5.72-1.37.21 1.1.44 2.19.7 3.28.71 5.47.25 11-.61 16.42 1.09.17 2.17.34 3.26.52 1.46 7.36 4.91 14.09 7.29 21.17.92 1.9.69 3.98.16 5.95-6.28-6.66-10.36-15.27-12.18-24.2-1.84-7.16-3.83-14.37-4.34-21.77zm316.72 3.09c1.55-.66 2.7.7 3.75 1.62 3.85 3.53 5.77 8.83 5.81 13.99-.08 4.84-4.27 10.03-9.5 8.67-4.02-1.96-7.82-5.84-7.72-10.6-.25-5.37 1.77-12.24 7.66-13.68zm-262.73 1.75c.66-.34 1.98-1.04 2.64-1.39 2.14 2.81 3.7 6 4.64 9.4-2.56.56-5.31-.07-6.82-2.37-.38-1.86-.37-3.76-.46-5.64zm168.44 3c8.88-1.67 17.98-1.33 26.92-.36 1.83.3 3.47 1.24 5.14 2 2.89-.44 5.86-1.52 8.77-.68 10.55 3.27 21.85 5.44 30.91 12.14 4.38 3.4 9.96 5.04 13.67 9.34 8.02 6.62 15.7 13.92 20.97 23.01 4.84 7.1 7.75 15.22 11.19 23.03 2.13 4.75 3.11 9.9 4.96 14.76 3.22 8.13 1.85 17.16 4.27 25.48 1.05 3.99.94 8.15.85 12.24-.02 4.41-1.9 8.53-2.18 12.92-.08 3.42-2.09 6.32-2.78 9.59-1.17 7.54-4.52 14.47-7.59 21.38-4.26 8.71-10.84 15.93-16.33 23.84-1.05-.6-2.1-1.2-3.15-1.79.64 6.72-5.15 11.07-9.7 14.94-5.46 4.22-10.29 9.53-16.85 12.05-3.31 1.35-6.61 2.72-9.89 4.12-5.7 2.45-11.87 3.39-17.78 5.21-6.07 1.86-12.48.82-18.71 1.43-3.75.22-7.41 1.31-11.17 1.29-7.69-.43-15.26-1.91-22.88-2.94-6.38-1.45-12.44-4.21-17.65-8.18-9.03-4.86-18.14-10.13-24.93-17.99-3.56-4.4-8.36-7.73-11.21-12.69-3.63-6.01-8.19-11.49-10.94-18.01-2.97-7.22-6.68-14.37-7.3-22.28-.25-3.54-1.85-6.77-2.41-10.24-1.04-7.77-5.22-15.18-3.88-23.19.28-1.57 2-2.13 3.08-3.05-.98-.51-1.95-1.04-2.92-1.55.87-1.14 1.75-2.27 2.64-3.39-2.99-6.7-1.66-14.35 0-21.21 3.24-8.18 4.64-17.14 9.42-24.67 1.09-1.67 3.1-2.25 4.78-3.12.03-1.68.05-3.37.08-5.04 4.54-4.09 5.89-10.53 10.69-14.39 1.65-2.04 4.2-2.57 6.68-2.75.55-2.38.57-5.17 2.55-6.89 1.77-2.1 4.46-2.83 7.06-3.28 1.7-2.45 3.4-5.08 6.13-6.49 12.34-6.7 25.34-13.07 39.49-14.59m7.54 4.26c-3.68-1.36-7.29.85-10.94 1.23-10.43 1.43-19.7 6.63-29.07 11.06-3.19 1.65-6.3 3.7-8.36 6.71-1.07.64-1.64 1.81-2.39 2.76-5.38 3.37-11.02 7.12-14.59 12.46-2.02-.97-4.15 2.6-2.94 4.23-.8.72-1.53 1.51-2.19 2.36-3 4.69-6.32 9.23-8.49 14.39-2.31 5.68-5.81 11.01-6.43 17.24-2.44 3.78-2.36 8.45-3.6 12.66-1.68 5.74-2.03 11.78-1.62 17.72.34 4.27-.23 8.57.35 12.83.44 4.1 2.38 7.86 2.72 11.97.2 2.47-.07 4.94-.3 7.4.43.23 1.27.7 1.7.93 1.8 7.21 6.32 13.21 9.48 19.82 1.18 2.39 2.48 4.73 4.04 6.9 10.06 14.22 23.48 26.49 39.62 33.38 6.9 2.84 13.74 5.99 21.06 7.6 16.64 3.1 33.99 1.11 49.96-4.26 9.02-2.36 17.18-7.09 24.85-12.27 7.79-4.6 13.9-11.43 20.13-17.86 10.83-13.18 19.24-28.77 22.27-45.67.67-4.48 2.32-8.79 2.46-13.35.08-5.53 1.28-11.07.28-16.58-.95-5.61-.58-11.47-2.57-16.88-2.08-6.84-3.46-13.98-7.02-20.27-4.69-8.09-8.56-16.92-15.36-23.53-3.66-3.69-6.56-8.15-10.94-11.07-4.74-3.25-8.47-7.88-13.75-10.34-2.9-1.34-5.5-3.51-8.66-4.17-7.98-4.92-17.54-6.2-26.58-8.02-7.68-.19-15.6-1.37-23.12.62zm-187.8 6.51c1.17-.67 2.24-2.07 3.73-1.53 2.56 2.26 3.41 5.71 4.31 8.86-3.79-.38-6.69-2.89-7.71-6.55zm-10.49 5.96c3.81 2.79 6.31 6.86 7.77 11.3-1.54.71-3.41 2.42-5.03.88-3.57-2.98-3.32-8.02-2.74-12.18zm-10.08 3.79c2.19 1.55 3.53 3.86 4.33 6.38.96 2.71 2.65 5.06 4.31 7.38-2.39.21-5.76.37-6.67-2.45-1.15-3.66-1.87-7.47-1.97-11.31z" fill="#191613"/><path d="M293.67 169.9c5.98-1.76 12.14.58 17.59 2.97 2.71 1.4 6.16 3.04 6.56 6.45.54 5.03-1.05 10.57-5.02 13.91-4.76 3.97-10.46 6.84-16.63 7.76-2.24.55-4.46 1.16-6.73 1.58-8.45.66-17.87 1.14-25.31-3.6-4.67-2.63-4.31-9.02-1.54-12.92 3.28-5.93 9.75-8.72 15.54-11.58 4.87-2.44 10.31-3.23 15.54-4.57m2.33 4.76.93.2c-2.94.24-6.44-.42-8.58 2.13-2.98.73-6.21 1.07-8.8 2.84-2.96.8-5.87 2.18-7.42 4.97-1.47 1.12-2.72 2.49-4.06 3.75-1.09 1.67-1.77 3.55-2.26 5.48l.91-.41c1.63 1.95 3.19 4.35 5.83 5 4.51 1.31 9.25.55 13.86.56 9.98-.13 20.38-4.75 25.17-13.86.61-2.33.35-4.76.35-7.13a205.87 205.87 0 0 1-6.6-3.83c-3.11-.25-6.27-.47-9.33.3zm-148.26 9.35c2.31-.99 5.49-.8 7.08 1.37 3.27 4.37 4.45 10 4.3 15.38-.09 3.29-2.17 6.11-4.42 8.33-2.54 2.89-6.81 1.46-9.85.28-3.92-3.15-5.58-8.5-5.19-13.41.32-3.12.01-7.06 2.92-9.05 1.55-1.23 3.3-2.21 5.16-2.9zm183.8 43.55c4.07-4.66 9.94-7.53 15.9-8.87 4.22-.53 9.65-.12 12.06 3.96 2.35 3.35 4.42 7.51 3.23 11.7-1.19 4.3-2.48 8.59-3.99 12.8-4.45 8.89-12.78 14.74-19.44 21.82-6.63 2.85-13.29 5.64-20.07 8.1-7.81.43-15.36 2.81-22.92 4.68 3.44 6.54 4.88 14.17 2.9 21.4-1.14-.26-2.27-.52-3.41-.77-.33-2.94-.7-5.87-1.05-8.8-.43-3.36-.92-6.75-2.13-9.93-1.33-3.36-4.59-5.31-7.34-7.41-2.89-.44-5.82-.55-8.73-.37-2.73 2.01-5.98 4.29-6.29 7.99-.59 5.91-2.15 11.98-.58 17.87 1.83 7.49 2.05 16.08 7.79 21.9 3.52 2.5 8.63 1.81 11.88-.88 3.08-2.4 3.98-6.4 5.02-9.96 1.29-2.58 3.13-4.82 4.98-7.01.04 2.67.1 5.34 0 8.02-1.78 5.36-3.75 12.42-10.04 13.88-6.13 2.65-13.72 1.38-18.37-3.47-3.64-4.74-4.35-10.93-4.99-16.68-.49-8.02-2.83-16.66 1.43-24.11-6.77-1.78-14.52-.75-20.4-5.19-4.73-3.55-10.69-6.69-12.17-12.93-3.63-9.91 2.89-21.52 12.66-24.71 5.46-1.08 11.11-.94 16.54.24 10.5 1.5 21.26 2.3 31.78.49-.18-1.02-.32-2.03-.43-3.05.04-.33.1-.99.14-1.31 2.56 1.69 5.38 4.58 8.67 2.88 7.14-5.34 16.34-6.61 23.49-11.91 1.13.7 2.67 1.14 2.9 2.67-6.37 3.46-13.12 6.2-19.43 9.81 6.89-1.32 12.89-5.04 19.22-7.84 3.46-1.53 6.41-3.95 9.18-6.49-2.24.56-4.46 1.2-6.76 1.39-.31.02-.92.07-1.23.09m-7.48 15.3c-.78 4.1-1.93 8.14-3.86 11.86-.73 1.79-2.09 3.81-1.28 5.79-1.96 2.68-2.58 5.96-3.2 9.14.97-.19 1.94-.38 2.93-.56.45-2.23.92-4.46 1.38-6.69 1.66-3.66 1.34-8.65 5.74-10.37-.42-.76-.84-1.53-1.24-2.28.53-1.87 1.08-3.73 1.62-5.59-.7-.44-1.4-.87-2.09-1.3m4.04 6.26c1.11-.04 2.22-.09 3.34-.13 1.03.81 2.05 1.62 3.08 2.44.87-1.81 1.76-3.62 2.86-5.31 1.33 1.23 2.15 2.86 3 4.43.93-.77 1.86-1.53 2.79-2.29a381.91 381.91 0 0 0-7.61-4.97c-2.78 1.53-6.12 2.66-7.46 5.83m-57.45-2.22c-.02.66-.08 1.99-.1 2.65 2.58-.43 5.15-.99 7.65-1.81-2.49-.54-5.02-.78-7.55-.84m44.92.26c-1.85 4.85-3.03 9.94-5.14 14.69-1.41 3.11-2.01 6.47-2.57 9.81.33.25.98.76 1.31 1.01 1.72-4.12 3.09-8.37 4.57-12.57 1.48-4.44 4.84-8.25 4.74-13.14l-2.91.2m-35.42 4.21c3.53-.68 7.24-2.41 10.74-.67-2.51 7.4-8.7 13.26-9.42 21.27 3.27-2.33 4.59-6.23 6.46-9.61 2.03-4.03 4.15-8.07 5.44-12.41-.72-1.1-1.78-2.07-3.11-2.27-3.73-.62-8.56-.43-10.11 3.69m19.14-.92c-1.73 4.24-4.61 7.92-5.98 12.3 4.42-4.24 7.37-9.69 9.71-15.29-1.35.84-3.17 1.33-3.73 2.99m3.55 9.75c-2.08 4.32-4.28 8.62-5.28 13.36 1.39-.13 2.79-.26 4.19-.38-.06-2.44-.55-5.04.61-7.32 2.84-5.96 5.21-12.12 7.96-18.12-4.7 2.41-5.38 8.14-7.48 12.46m24.92 7.85c1.13-1.05 2.69-1.88 3.03-3.51 1.12-3.92 2.08-7.88 3.37-11.75-4.34 3.88-5.54 9.77-6.4 15.26m9.78-3c.77-1.11 2.1-2.11 1.82-3.62-.25-3.13.42-6.18 1.44-9.11-4.03 2.84-5.36 8.29-3.26 12.73m-94.02 3.8c.3.56.88 1.68 1.17 2.24 1.3-.57 3.11-.61 3.67-2.16 1.64-3.26 3.66-6.28 6.23-8.88 1.98-1.63 1.53-4.3 1.64-6.56-4.3 5.08-6.97 11.56-12.71 15.36m25.75-14.36c-2.36 2.75-4.77 5.58-5.88 9.1l2.19.87c1.94-3.49 3.95-6.94 5.74-10.51-.51.13-1.53.41-2.05.54m-29.18 11.8c4.9-2.01 8.01-7.17 9.78-11.95-5.26 1.66-8.37 6.92-9.78 11.95m37.19-4.59c-1.51 3.63-5.01 6.24-5.44 10.33l3.22-.36c1.85-6.47 7.12-11.14 9.22-17.47-3.63.99-5.6 4.27-7 7.5m-13.51 9.99c1.07.31 2.15.61 3.22.92 1.62-2.92 2.57-6.14 4.04-9.13 1.9-2.49 4.14-4.79 5.12-7.84-4.98 4.64-8 10.88-12.38 16.05m-14.95 2.63c.91.36 1.83.73 2.75 1.1 1.56 1.55 3.6 2.22 5.77 2.35-1.42-1.14-2.89-2.23-4.36-3.29.91-4.26 3.1-8.04 5.14-11.83-4.52 2.57-6.46 7.6-9.3 11.67m7.68.56c3.4-2.14 5.38-5.7 6.55-9.45-3.75 1.79-5.35 5.74-6.55 9.45zm182.02-54.71c1.16.14 2.32.28 3.49.43.3 1.06.63 2.13.96 3.2-1.33.55-2.67 1.1-3.99 1.67-.15-1.77-.3-3.53-.46-5.3zm-140.98 8.11c-3.01-1.64-5.63-4.87-3.58-8.35 1.36 1.39 3.2 2.52 3.95 4.41.09 1.32-.21 2.63-.37 3.94z" fill="#191613"/><path d="M295.1 232.54c.83-.02 2.5-.04 3.34-.05.34 1.16.69 2.31 1.03 3.48l-4.25.09zm-173.31 6.79c8.72-.82 18.51-2.38 26.21 2.88 3.11 2.53 6.28 4.99 9.24 7.69 3.58 4.58 7.98 8.91 9.26 14.8 1.8 8.05 1.21 16.6-1.91 24.25-1.95 8.52-8.69 14.78-15.84 19.21-5.28 2.92-11.47 3.02-17.3 3.83-6.94.99-14.4 1.76-20.89-1.53-8.4-3.73-14.15-11.25-19.12-18.67-3.56-12.24-.78-25.62 5.27-36.62 1.84-3.43 5.27-5.45 8.07-7.99 2.18-1.86 4.09-4.15 6.76-5.33 3.24-1.42 6.77-2.04 10.25-2.52m-1.66 5.1c-8.81 2.09-15.71 9.32-19.45 17.35-4.38 5.44-3.88 12.88-4.88 19.43-.72 3.79.39 7.55 2.68 10.59.21.64.64 1.92.85 2.56.79 1.26 1.56 2.54 2.33 3.82 2.69 2.76 5.37 5.65 8.88 7.38 5.01 3.16 11.16 1.66 16.73 2.31 6.19.36 12.51-1.21 18.03-3.97 3.27-2.01 6.06-4.72 8.68-7.5 3.77-3.97 4.58-9.59 6.63-14.47 1.98-4.22.86-9.04-.66-13.21.57-1.16 1.15-2.32 1.72-3.48-1.16-.74-2.35-1.45-3.39-2.36-1.3-2.27-1.5-4.98-2.61-7.34-1.27-1.28-2.98-1.98-4.52-2.85-.06-4.34-4.09-6.04-7.68-6.97-2.11-.64-4.2-1.42-6.41-1.67l.12-.9c-5.69-.09-11.52-.34-17.05 1.28zm160.47 50.11c-1.44-1.82 1.26-3.11 2.05-4.54.38 1.75.72 3.51.99 5.3z" fill="#191613"/><path d="M347.45 7.995c6.93-2.4 14.86-2.66 21.66.24 4.4 2.49 8.26 5.8 12.33 8.78.03 1.1.07 2.2.11 3.3l-2.26-.36c-3.54-4.18-8.67-6.41-13.18-9.33l3.55-.4c-6.6-4.4-14.81-2.9-22.21-2.23zM91.56 41.815c4.04.76 8.33 1.49 11.48 4.37-4.97.79-9.72-1.28-14.61-1.72-3.76-.34-7.56-.29-11.32-.01 4.71-2.24 10.01-1.34 14.97-.76zm-53.98 128.59c.62 1.07 1.25 2.15 1.87 3.23-1.14.68-2.28 1.35-3.42 2.01.14-.69.41-2.07.55-2.76zm259.35 4.46c.53.11 1.61.32 2.14.42l-.08 2.19c-1.9.34-3.81.68-5.71 1.03-.61.12-1.84.37-2.45.49-.16-.59-.47-1.79-.62-2.39 2.26-.48 4.48-1.13 6.72-1.74zM212 190.345c2.17-5.16 5.49-9.7 8.49-14.39-.94 2.19-1.75 4.43-2.6 6.66.43.46 1.28 1.4 1.71 1.87-2.92 5.07-6.16 10.01-8.3 15.49-1.86 4.64-3.79 9.27-5.79 13.85.01-2.08 0-4.16.06-6.24.62-6.23 4.12-11.56 6.43-17.24z" fill="#cabba0"/><path d="M347.45 7.995c7.4-.67 15.61-2.17 22.21 2.23l-3.55.4c-8.41-.61-17.68-1.94-25.01 3.27-.04-1.11-.08-2.22-.11-3.33 2.09-1.02 4.25-1.88 6.46-2.57zm-274 33.87c5.91-1.52 12.21-1.74 18.11-.05l.52 1.88c-4.96-.58-10.26-1.48-14.97.76-3.82 1.69-7.64 3.41-11.38 5.27a34.587 34.587 0 0 0-8.75 10.53c-3.38 6.13-7.97 11.76-9.53 18.73l-2.73 1.68c-.11-1.42-.22-2.84-.29-4.26.21-.63.64-1.87.85-2.5 3.65-4.88 6.07-10.44 8.05-16.17 2.84-4.07 5.62-8.41 10.28-10.6 3.33-1.67 6.36-3.93 9.84-5.27zm155.21 19.28c1.13-.15 2.27-.12 3.4.08 1.09.18 2.18.38 3.27.6 1.02.49 2.01 1.02 3.02 1.55-.52.32-1.57.95-2.09 1.27-3.75-.24-7.62-.39-11.02-2.17 1.13-.46 2.27-.9 3.42-1.33zm-29.41 4.75c8.08-2.77 16.87-4.45 25.4-3.21-6.17 2.49-12.89 2.72-19.36 3.97-2.03-.1-4.04-.41-6.04-.76zm-31.81 4.36c10.52-.31 20.52-4.19 31.01-4.89l-1.95 2.73c-8.26.44-16.02 3.59-24.16 4.73-6.59.93-13.03 2.66-19.44 4.4-2.71.68-5.5 2.61-8.31 1.32.93-.91 1.94-1.73 2.97-2.54.88-.47 1.82-.82 2.79-1.05 5.54-1.21 11.03-2.64 16.37-4.54zm124.45 65.1c12-.18 24.2.22 35.86 3.28-5.86.7-11.79.69-17.67.24-9.41-1.56-18.86.56-28 2.71-4.4 1.19-9.05 1.6-13.21 3.57-9.12 4.33-18.55 8.32-26.39 14.83-4.28 3.74-9.5 6.33-13.37 10.53-3.37 4.51-6.23 9.39-9.51 13.97-.43-.47-1.28-1.41-1.71-1.87.85-2.23 1.66-4.47 2.6-6.66.66-.85 1.39-1.64 2.19-2.36 1.35-1.12 2.26-2.64 2.94-4.23 3.57-5.34 9.21-9.09 14.59-12.46 3.42-1.47 6.72-3.28 9.16-6.16 3.89-3.14 8.77-4.51 13.28-6.47 9.39-4.05 19.33-6.54 29.24-8.92zm146.22 30.21c4.62-.33 9.48-1.18 13.95.49 4.47 1.52 8.29 4.44 11.58 7.77-5.07-.95-9.56-3.6-14.44-5.13-3.92-1.24-7.96.07-11.91.45-.56.18-1.67.55-2.22.73-5.69 3.38-10.11 8.45-13.86 13.82-3.62 4.99-3.49 11.76-7.62 16.48.05-3.49.36-6.98 1.1-10.39l.34-.69c2.65-4.53 4.16-9.89 8.37-13.32 1.55-.64 2.85-1.82 3.17-3.54 1.97-4.31 7.05-6.28 11.54-6.67zm-149.76 11.43c.47-.1 1.39-.29 1.86-.39.15.6.46 1.8.62 2.39-3.27.95-6.49 2.08-9.63 3.4-4.55 2.54-8.18 6.35-12.32 9.46-.2-.82-.61-2.47-.81-3.3 1.34-1.26 2.59-2.63 4.06-3.75 2.52-1.59 5.01-3.21 7.42-4.97 2.59-1.77 5.82-2.11 8.8-2.84zm-168.22 67.44c5.64-.22 11.29-.83 16.93-.38 2.21.25 4.3 1.03 6.41 1.67.63.98 1.26 1.97 1.88 2.97-1.15-.26-2.29-.52-3.43-.76-1.19-.26-2.37-.48-3.57-.63-3.71-.48-7.46-.28-11.18-.02h-1.64c-1.55 0-3.1-.02-4.64.12-.57.33-1.72.99-2.3 1.31-3.8 2.59-8.54 3.87-11.63 7.42-2.14 3.72-3.66 7.82-6.43 11.16.01-1.84.04-3.68.15-5.51 3.74-8.03 10.64-15.26 19.45-17.35zm219.17 24.54c2.95-1.19 5.67-2.85 8.24-4.71.46.22.91.44 1.37.66-7.58 6.14-16.39 10.62-25.31 14.48-1.81-.21-3.56-.7-5.31-1.18l.94-1.15c6.78-2.46 13.44-5.25 20.07-8.1zm-241.58 4.46c.09-1.74.96-3.28 1.68-4.82.13 1.99.13 3.98.15 5.97-.45-.29-1.37-.86-1.83-1.15zm219.79 5.66c1.71-.02 1.41 2.72-.18 2.63-1.73.01-1.43-2.75.18-2.63zm-19.24 3.05c3.02-.53 6.03-1.1 9.07-1.52 2.42.19 4.8.65 7.17 1.14-2.4 1.19-4.87 2.26-7.47 2.92-2.73.43-5.66.98-8.31-.05-.12-.62-.35-1.87-.46-2.49z" fill="#e8decd"/><path d="M341.1 13.895c7.33-5.21 16.6-3.88 25.01-3.27 4.51 2.92 9.64 5.15 13.18 9.33 1.2 1.36 2.4 2.73 3.61 4.09.21-1.4.43-2.81.65-4.21 3.82 5.49 4.49 12.33 5.92 18.69 2.28 17.7.29 35.66-3.47 53.02-1.5 6.21-2.64 12.59-5.42 18.39-3.31-2.05-7.05-3.72-9.54-6.8-1.25-2.81-.97-6.01-1.25-9.01-.57.13-1.7.4-2.27.53 3.95-10.88 7.78-22.17 7.64-33.89.85-.86 1.7-1.72 2.53-2.61.52 2.36 1.29 4.9.28 7.24-.92 2.34-1.83 4.79-1.11 7.32.76-.12 2.28-.38 3.04-.51 1.57-7.66 1.61-15.58.39-23.29-.53-4.06-3.74-7.01-4.82-10.87-.76-2.19-1.11-4.76-3.09-6.24-7.12-6.16-17.05-9.02-26.35-7.56-9.72 1.66-16.93 8.98-24.41 14.8-6.05 4.57-8.84 11.77-12.82 17.95-2.99-1.52-5.99-3.03-9.01-4.49.99-3.95 2.05-7.91 3.67-11.66l.99-.83c2.52-1.87 5.03-3.78 7.28-5.98-.71 1.31-1.35 2.65-2 3.99 5.86-5.42 11.67-10.91 17.87-15.96 4.18-3.21 9-5.44 13.5-8.17m31.51 68.86c-.34.52-1.02 1.55-1.36 2.07 1.37.96 2.74 1.93 4.11 2.89l1.95-3.87c-1.57-.36-3.14-.73-4.7-1.09zm23.5-53.86c1.16 2.76 2.07 5.66 2.12 8.68-.24 9.48.6 18.96.1 28.43-1.06 8.73-3.28 17.35-6.02 25.71.44-2.29.64-4.63.73-6.96-.32-8.33 4.33-16.1 2.64-24.5-1.03.03-2.05.07-3.07.1 1.35-1.76 3.14-3.4 3.52-5.68 1.37-8.54.36-17.2-.02-25.78zM65.73 49.725c3.74-1.86 7.56-3.58 11.38-5.27 3.76-.28 7.56-.33 11.32.01 4.89.44 9.64 2.51 14.61 1.72 3.33-.86 5.02 2.94 7.26 4.69 8.39 7.8 17.25 15.26 23.77 24.8-1.27 1.37-2.54 2.74-3.8 4.11 2.28.08 4.59.01 6.86.41 4.7 1.2 5.47 7.97 10.62 8.11-.18-1.67-.16-3.39-.7-5-1.18-2.14-3.61-3.46-3.96-6.05 1.49-.42 2.98-.83 4.47-1.25-1.03.81-2.04 1.63-2.97 2.54 2.81 1.29 5.6-.64 8.31-1.32 6.41-1.74 12.85-3.47 19.44-4.4 8.14-1.14 15.9-4.29 24.16-4.73 2.96-.27 5.89-.79 8.79-1.44 6.47-1.25 13.19-1.48 19.36-3.97l.59-.21c3.4 1.78 7.27 1.93 11.02 2.17 13.16.96 26.46.89 39.45 3.54.07-.48.2-1.45.27-1.93-13.44-2.37-27.09-3.03-40.65-4.43-1.09-.22-2.18-.42-3.27-.6 12.25-.77 24.43 1.02 36.56 2.49 15.68 2.76 31.4 6.32 45.97 12.89 6.5 2.3 12.83 5.07 19 8.16 5.42 2.69 10.18 6.48 15.54 9.28 5.36 2.75 9.92 6.72 14.84 10.13 8.33 5.52 14.69 13.34 22.08 19.96 8.45 7.08 13.64 17.01 20.75 25.28 5.46 5.98 7.46 14.1 12.37 20.46-3.31 5.6-6.99 11-9.82 16.87-1.7 3.44-1.66 7.34-2.17 11.06-1.53 10.81 3.4 22.79 13.39 27.85 5.34 2.04 10.77 3.87 16.08 6.03 2.59 11.17 2.43 22.75 1.69 34.13.42 6.29-1.14 12.44-1.64 18.68-.43 5.2-1.78 10.26-3.39 15.2-1.37 4.1-1.26 8.71-3.66 12.44-2.43 3.71-3.5 8.15-6.26 11.67-3.05 3.95-4.35 8.87-7.08 13.01-4.91 7.33-10.61 14.11-15.33 21.59-6.59 10.49-16.45 18.22-24.84 27.15-5.57 6.17-12.68 10.61-18.43 16.58-3.97 4.24-9.44 6.49-13.85 10.18-6.5 5.3-13.81 9.46-20.61 14.36-5.05 3.75-11.69 4.44-16.63 8.39-2.57 2.08-5.63 3.44-8.88 4.08 2.45-5.28 3.97-10.94 5.39-16.57-1.75.73-4.16.87-5.01 2.84-2.28 4.52-3.13 9.57-4.37 14.43.67.02 2.01.05 2.68.06-4.32 1.66-9.14.85-13.45 2.55-6.45 2.51-13.36 3.3-20.01 5.06-11.66 2.81-23.71 3.06-35.62 3.67-9.51-.11-18.99-1.05-28.51-1.01-5-.19-9.96-1.26-14.98-.96-10.83.8-21.13-3.36-31.65-5.12-7.17-.83-13.55-4.41-20.16-7.03-5.9-3-12.21-5.05-18.23-7.75-9.96-5.2-19.96-10.37-29.34-16.58-4.51-2.33-9.12-4.63-12.44-8.61-7.02-5.69-15.86-9.16-21.89-16.12-2.56-3.15-4.76-6.56-7.38-9.65-2.71-3.17-3.8-7.34-6.36-10.61-3.61-4.59-5.87-10.03-8.95-14.97-6.93-14.11-11.04-29.37-15.27-44.45-2.36-14.02-4.29-28.22-3.74-42.48.21-4.58.09-9.18.5-13.74 1.92-11.5 3.28-23.12 6.47-34.36 3.52-11.01 8.02-21.67 12.73-32.21 3.48-6.72 6.38-13.9 11.34-19.71-.66 1.52-1.28 3.05-1.91 4.58l-1 2.48c-2.94 7.1-6.1 14.11-9.2 21.14-2.76 5.95-4.23 12.36-6.03 18.63-.83 2.49-.52 5.12 0 7.63 3.08-7.53 4.29-15.7 7.89-23.06 3.58-7.79 6.14-16.02 10.21-23.59 2.04-4.57 4.57-8.89 6.97-13.27 2.89 5.01 4.63 12.14 11.01 13.73-.85-3.1-2.14-6.04-3.47-8.95-1.92-4.2-2.68-8.87-5.16-12.81-3.23-5.04-2.67-11.36-4.99-16.77-1.18-4.26-4.38-8.25-3.44-12.88.8-4.17.51-8.42-.81-12.45 2.64-9.3-.52-19.38 3.07-28.54-.35 6.47-1.4 13.03-.22 19.47.86-2.53 1.39-5.16 1.68-7.82.56-4.9 2.19-9.59 3.36-14.36 1.56-6.97 6.15-12.6 9.53-18.73 2.17-4.04 5.18-7.66 8.75-10.53m14.97 20.44c-2.83 2.12-4.06 5.82-7.19 7.65-3.62 2.15-5.37 6.08-7.83 9.31-2.83 3.39-3.29 7.93-4.32 12.06-.29 3.43 1.14 6.89-.05 10.28-.92 2.24.66 4.71 2.95 5.17.99-1.17 1.82-2.51 2.27-3.98-.05 3.67-.17 7.36.19 11.02-1.98-.14-4.63-.91-5.72 1.37.51 7.4 2.5 14.61 4.34 21.77 1.82 8.93 5.9 17.54 12.18 24.2.53-1.97.76-4.05-.16-5.95 2.39.85 4.87.47 7.21-.35.91 2.82 4.28 2.66 6.67 2.45-1.66-2.32-3.35-4.67-4.31-7.38 1.62-.59 3.91-1.11 4.17-3.16.38-4.57-3.24-9.42.23-13.54 3.18 1.3 3.37 5.38 4.82 8.12 2.57-2.12 5.06-4.34 7.35-6.77 1.02 3.66 3.92 6.17 7.71 6.55-.9-3.15-1.75-6.6-4.31-8.86-1.49-.54-2.56.86-3.73 1.53-.64-1.59-1.21-3.2-1.78-4.81 2.22-1.6 4.48-.92 6.41.76 2.14-1.98 4.47-3.85 6.04-6.35.88-3.62-2.96-7.73-.49-10.94 3.36-.6 3.51 3.55 4.67 5.67 2.3-.87 3.99-2.66 5.27-4.71-.79-1.48-1.71-2.91-2.15-4.54-.22-2.26 2.32-2.86 3.77-3.97.89 1.26 1.69 2.62 2.81 3.71 1.77.3 2.76-1.56 3.52-2.85.04-1.78-1.01-3.32-1.89-4.78 1.08.37 2.16.76 3.23 1.15.47 1.3.96 2.6 1.47 3.89.94-2.74 1.21-5.85-.57-8.34-3.84-5.99-7.87-11.92-12.78-17.1-6.58-8-12.98-17.3-23.33-20.6-5.48-2.76-11.71-.46-16.67 2.32m129.67 4.75c1.65 7.32 6.7 13 11.46 18.52 1.44.05 2.87.11 4.31.17-2.29-5.88-4.78-11.84-8.9-16.7-1.54-2.25-4.54-1.65-6.87-1.99m71.33 10.21c-3.05 1.52-2.3 5.25-1.47 7.89 1.77 5.51 3.69 10.97 5.43 16.49 1.18 0 2.35 0 3.53.01-.72-6.77-2.08-13.46-3.62-20.08-.47-1.87-1.41-4.73-3.87-4.31m-106.26.52c-.61 1.91-2.47 4.07-1.04 6.05 3.19 4.99 6.78 10.71 13.03 12.03-2.28-6.93-6.73-13.09-11.99-18.08m73.1 22.13c2.18 4.66 4.91 9.03 7.14 13.67.68.01 2.04.02 2.72.03-1.31-7.84-5.87-14.55-8.62-21.9-3.16 1.6-2.48 5.52-1.24 8.2m-38.18 3.14c3.5 7.66 9.58 13.94 16.94 17.97-.29-2.87-1.2-5.65-3.28-7.71-3.01-3.2-3.91-7.93-7.41-10.68-1.83-1.66-4.22.11-6.25.42m-86.31 13.31c.81 3.29 3.82 5.14 6.56 6.72 1.39-4.55-.8-8.89-3.42-12.5-1.47 1.57-4.16 3.26-3.14 5.78m253.67 1.91c-5.89 1.44-7.91 8.31-7.66 13.68-.1 4.76 3.7 8.64 7.72 10.6 5.23 1.36 9.42-3.83 9.5-8.67-.04-5.16-1.96-10.46-5.81-13.99-1.05-.92-2.2-2.28-3.75-1.62m-262.73 1.75c.09 1.88.08 3.78.46 5.64 1.51 2.3 4.26 2.93 6.82 2.37-.94-3.4-2.5-6.59-4.64-9.4-.66.35-1.98 1.05-2.64 1.39m168.44 3c-14.15 1.52-27.15 7.89-39.49 14.59-2.73 1.41-4.43 4.04-6.13 6.49-2.6.45-5.29 1.18-7.06 3.28-1.98 1.72-2 4.51-2.55 6.89-2.48.18-5.03.71-6.68 2.75-4.8 3.86-6.15 10.3-10.69 14.39-.03 1.67-.05 3.36-.08 5.04-1.68.87-3.69 1.45-4.78 3.12-4.78 7.53-6.18 16.49-9.42 24.67-1.66 6.86-2.99 14.51 0 21.21-.89 1.12-1.77 2.25-2.64 3.39.97.51 1.94 1.04 2.92 1.55-1.08.92-2.8 1.48-3.08 3.05-1.34 8.01 2.84 15.42 3.88 23.19.56 3.47 2.16 6.7 2.41 10.24.62 7.91 4.33 15.06 7.3 22.28 2.75 6.52 7.31 12 10.94 18.01 2.85 4.96 7.65 8.29 11.21 12.69 6.79 7.86 15.9 13.13 24.93 17.99 5.21 3.97 11.27 6.73 17.65 8.18 7.62 1.03 15.19 2.51 22.88 2.94 3.76.02 7.42-1.07 11.17-1.29 6.23-.61 12.64.43 18.71-1.43 5.91-1.82 12.08-2.76 17.78-5.21 3.28-1.4 6.58-2.77 9.89-4.12 6.56-2.52 11.39-7.83 16.85-12.05 4.55-3.87 10.34-8.22 9.7-14.94 1.05.59 2.1 1.19 3.15 1.79 5.49-7.91 12.07-15.13 16.33-23.84 3.07-6.91 6.42-13.84 7.59-21.38.69-3.27 2.7-6.17 2.78-9.59.28-4.39 2.16-8.51 2.18-12.92.09-4.09.2-8.25-.85-12.24-2.42-8.32-1.05-17.35-4.27-25.48-1.85-4.86-2.83-10.01-4.96-14.76-3.44-7.81-6.35-15.93-11.19-23.03-5.27-9.09-12.95-16.39-20.97-23.01-3.71-4.3-9.29-5.94-13.67-9.34-9.06-6.7-20.36-8.87-30.91-12.14-2.91-.84-5.88.24-8.77.68-1.67-.76-3.31-1.7-5.14-2-8.94-.97-18.04-1.31-26.92.36m-94.73 8.53c1.46 4.15 5.2 6.86 8.19 9.88 1.9 2.02 4.46 3.09 7.14 3.61.13-.78.37-2.35.49-3.13-4.66-4.75-9.14-9.65-13.27-14.86-1.82.57-3.43 2.55-2.55 4.5m-37.93 7.28c-.44 1.3-.88 2.61-1.32 3.92 4.01 3.73 8.25 7.19 12.55 10.57 2.12 1.73 4.88 2.14 7.49 2.55-.44-4.32-4.77-5.98-7.78-8.29-3.94-2.57-6.57-6.79-10.94-8.75m-58.09.92c-.58 4.16-.83 9.2 2.74 12.18 1.62 1.54 3.49-.17 5.03-.88-1.46-4.44-3.96-8.51-7.77-11.3m55.06 36.4c-1.86.69-3.61 1.67-5.16 2.9-2.91 1.99-2.6 5.93-2.92 9.05-.39 4.91 1.27 10.26 5.19 13.41 3.04 1.18 7.31 2.61 9.85-.28 2.25-2.22 4.33-5.04 4.42-8.33.15-5.38-1.03-11.01-4.3-15.38-1.59-2.17-4.77-2.36-7.08-1.37m-25.95 55.32c-3.48.48-7.01 1.1-10.25 2.52-2.67 1.18-4.58 3.47-6.76 5.33-2.8 2.54-6.23 4.56-8.07 7.99-6.05 11-8.83 24.38-5.27 36.62 4.97 7.42 10.72 14.94 19.12 18.67 6.49 3.29 13.95 2.52 20.89 1.53 5.83-.81 12.02-.91 17.3-3.83 7.15-4.43 13.89-10.69 15.84-19.21 3.12-7.65 3.71-16.2 1.91-24.25-1.28-5.89-5.68-10.22-9.26-14.8-2.96-2.7-6.13-5.16-9.24-7.69-7.7-5.26-17.49-3.7-26.21-2.88m85.06 91.83c-4.45 5.17-5.71 12.21-8.39 18.34 1.15-.03 2.29-.07 3.44-.09 3.12-5.97 6.16-11.97 9.39-17.87-1.48-.18-2.95-.39-4.44-.38m-44.94 10.12c-2.81 4.58-4.7 9.67-6.59 14.68 1.14.05 2.33.56 3.45.17 1.57-1.1 2.22-3.03 3.07-4.66 1.93-4.36 4.51-8.4 6.31-12.83-2.13.63-4.97.48-6.24 2.64m-54.49 14.53c-2.75 3.94-5.4 7.96-7.97 12.02-.91 1.23-.26 2.76-.19 4.13 5.07-5.83 10.84-11.69 12.97-19.33-1.81.7-3.74 1.44-4.81 3.18m252.84 1.63c-1.92 5.25-2.77 10.88-3.17 16.44-.1 1.92 2.31 2.18 3.58 2.98 2.34-6.59 1.96-13.63 3.09-20.45-1.16-.16-3.05-.39-3.5 1.03m-54.94 2.15c-2.25 4.1-3.93 8.51-4.96 13.08 1.8-.36 3.6-.74 5.4-1.13.94-5.02 2.97-9.77 3.55-14.86-1.42.8-3.28 1.26-3.99 2.91m-82.23 13.87c-4.46 6.5-6.85 14.06-9.52 21.41 2.64-1.08 5.27-2.55 6.58-5.22 3.15-5.78 6.08-11.73 8.22-17.96-1.77.46-4.32-.2-5.28 1.77m40.34 2.48c-4.16 6.87-7.23 14.41-9.8 22 3.12-.82 5.58-3.04 6.86-5.98 2.32-5.17 4.5-10.44 6.01-15.91-.77-.03-2.3-.08-3.07-.11m63.17 5.2c-1.76 4.91-3.14 9.95-4.92 14.87-1.23 2.91-.41 6.06.17 9.01 2.28-1.78 4.07-4.19 4.37-7.14.78-5.76 3.18-11.1 4.14-16.81-1.25.02-2.51.04-3.76.07m-156.15 4.75c-3.64 4.49-6.14 10.15-5.92 16.03 4.41-.31 4.65-5.29 6.79-8.17 2.16-3.05 4.45-6.12 5.06-9.91-2.02.44-4.5.27-5.93 2.05m117.89 12.52c-1.61 5.21-4.24 9.99-6.45 14.94-.4 1.36-1.76 3.09-.29 4.26 1.23-.42 2.58-.96 3.16-2.23 1.85-3.47 3.62-6.99 6.07-10.09 1.73-2.06 2.23-4.73 2.55-7.31-1.68.13-3.36.28-5.04.43m-167.26 7.04c-2.35 4.91-5.58 9.74-5.65 15.38 1.74-1.57 3.37-3.28 4.55-5.31 2.74-4.77 6.62-9.12 7.35-14.78-2.45.98-5.13 2.11-6.25 4.71m86.18 14.95c-2.53 6.09-7.7 10.54-10.36 16.54.17.42.5 1.26.66 1.67 3.01-1.35 4.81-4.29 6.69-6.85 2.77-4.21 5.83-8.39 7.02-13.39-1.73-.25-3.52.09-4.01 2.03m35.6 3.79c-3.3 4.25-6.78 9.12-6.17 14.8 4.39-4.31 7.01-9.99 10.66-14.88-1.46-.4-3.51-1.83-4.49.08m-88.44 16.5c1.2.34 2.41.69 3.63 1.03.78-1.92 1.53-3.85 2.41-5.73 1.67-3.77 5.19-6.87 4.75-11.34-6.09 3.21-7.89 10.33-10.79 16.04z" fill="#423c36"/><path d="M216.45 51.555c14.24-2.3 28.69-.18 42.93 1.12 7.55 1.56 15.3 2.2 22.7 4.4 3.84 1.26 7.75 2.31 11.6 3.51-1.9 1.08-4.03 1.9-6.21 1.12-13.42-3.55-27.18-6.12-41.09-6.42-5.88-.11-11.71-1.05-17.6-1.11-15.37.44-30.62 2.61-45.77 5.14-8.05 1.34-15.47 5-23.46 6.62-6.15 1.3-11.62 4.63-17.71 6.1-1.57.5-2.83-.85-4.08-1.56 10.4-5.05 21.39-8.75 32.6-11.49 9.08-2.77 18.5-4.22 27.93-5.11 6.02-1.24 12.32-.07 18.16-2.32zm94.15 16.82c.05-1.11.25-2.21.51-3.29 2.84 1.54 5.74 2.98 8.71 4.25 9.12 3.79 17.68 8.76 26.11 13.86 6.88 4.41 13.77 8.93 19.71 14.59-7.02-3.09-12.48-8.7-19.41-11.93-6.46-2.99-12.39-6.94-18.71-10.16-5.43-2.93-11.66-4.08-16.92-7.32zm124.47 101.5c.55-.18 1.66-.55 2.22-.73 1.07 2.06-2.38 3.35-2.22.73zm-20.01 11.43c1.94-3.17 5.29-5.11 8.37-7.05-.01.38-.03 1.14-.03 1.52-4.21 3.43-5.72 8.79-8.37 13.32-.06-2.59-.34-5.21.03-7.79zm21.47-5.94c1.42.16 1.67.81.74 1.96-1.44-.16-1.69-.81-.74-1.96zm-1.71 3.53c1.4-.45 1.87.03 1.42 1.44-1.4.44-1.88-.04-1.42-1.44zm13.87.19c1.34-1.07 2.8 1.27 1.51 2.19-1.33 1.04-2.84-1.28-1.51-2.19zm-12.47 7.99c-.49-3.07 2.04-4.81 4.26-6.31a22.49 22.49 0 0 1-4.26 6.31zm28.47-4.15c2.31-.72 1.36 2.97-.46 2.51-1.43-.32-.58-2.27.46-2.51zm5.11-.73c.67 2.22 1.64 4.62.41 6.84-.21-1.58-.49-3.14-.74-4.71-1.59 2.63-3.22 5.38-6.02 6.89.52-3.94 3.29-6.78 6.35-9.02zm-29.47 2.88c3.34.14-1.55 2.98 0 0zm-7.43 4.38c2.22-.1 4.44-.14 6.66-.15-1.07.83-2.05 1.83-3.31 2.36-1.48.07-2.32-1.4-3.35-2.21zm9.02 7.07c.65-1.51 1.43-2.95 2.31-4.35.8.94 1.62 1.89 2.42 2.84-1.58.52-3.15 1.04-4.73 1.51zm11.78-3.66c3.01-1.51.1 3.33 0 0zm-4.98 5.07c2.99-1.54.11 3.34 0 0zm-159.28 4.64c2.27-.42 4.49-1.03 6.73-1.58-.96 3.71.28 7.42.97 11.06 1.93 9.06 1.67 18.4 3.44 27.5 1.19.09 2.39.19 3.59.29-3.29 1.7-6.11-1.19-8.67-2.88-.04.32-.1.98-.14 1.31l-.1.82c-1.78-5.25-1.63-10.86-2.52-16.28-.57-6.83-2.16-13.5-3.3-20.24m8.1 25.71c.16-1.31.46-2.62.37-3.94-.75-1.89-2.59-3.02-3.95-4.41-2.05 3.48.57 6.71 3.58 8.35m-2.44 4.26.12 3.52 4.25-.09c-.34-1.17-.69-2.32-1.03-3.48-.84.01-2.51.03-3.34.05zm169.6-30.77c2.97-1.55.14 3.34 0 0zm-47.44 12.16c2.03 2.01 4.32 3.73 6.66 5.39-.02-1.52-.03-3.03-.05-4.55 1.11.7 2.22 1.39 3.34 2.08.14 1.55.28 3.1.43 4.65 2.41 1.17 4.81 2.38 7.19 3.63-6.7-1.85-13.98-4.88-17.57-11.2zm-84.49 13.54c2.3-.19 4.52-.83 6.76-1.39-2.77 2.54-5.72 4.96-9.18 6.49-6.33 2.8-12.33 6.52-19.22 7.84 6.31-3.61 13.06-6.35 19.43-9.81-.23-1.53-1.77-1.97-2.9-2.67 1.29-.14 2.58-.29 3.88-.37.31-.02.92-.07 1.23-.09zm-8.71 15.39c.69.43 1.39.86 2.09 1.3-.54 1.86-1.09 3.72-1.62 5.59.4.75.82 1.52 1.24 2.28-4.4 1.72-4.08 6.71-5.74 10.37-.28-.47-.84-1.41-1.11-1.89-.81-1.98.55-4 1.28-5.79 1.93-3.72 3.08-7.76 3.86-11.86zm4.04 6.26c1.34-3.17 4.68-4.3 7.46-5.83 2.56 1.62 5.09 3.29 7.61 4.97-.93.76-1.86 1.52-2.79 2.29-.85-1.57-1.67-3.2-3-4.43-1.1 1.69-1.99 3.5-2.86 5.31-1.03-.82-2.05-1.63-3.08-2.44-1.12.04-2.23.09-3.34.13zm-57.45-2.22c2.53.06 5.06.3 7.55.84-2.5.82-5.07 1.38-7.65 1.81.02-.66.08-1.99.1-2.65zm44.92.26 2.91-.2c.1 4.89-3.26 8.7-4.74 13.14-1.48 4.2-2.85 8.45-4.57 12.57-.33-.25-.98-.76-1.31-1.01.56-3.34 1.16-6.7 2.57-9.81 2.11-4.75 3.29-9.84 5.14-14.69zm-35.42 4.21c1.55-4.12 6.38-4.31 10.11-3.69 1.33.2 2.39 1.17 3.11 2.27-1.29 4.34-3.41 8.38-5.44 12.41-1.87 3.38-3.19 7.28-6.46 9.61.72-8.01 6.91-13.87 9.42-21.27-3.5-1.74-7.21-.01-10.74.67zm22.69 8.83c2.1-4.32 2.78-10.05 7.48-12.46-2.75 6-5.12 12.16-7.96 18.12-1.16 2.28-.67 4.88-.61 7.32-1.4.12-2.8.25-4.19.38 1-4.74 3.2-9.04 5.28-13.36zm-151.69-7.51c1.54.87 3.25 1.57 4.52 2.85 1.11 2.36 1.31 5.07 2.61 7.34 1.04.91 2.23 1.62 3.39 2.36-.57 1.16-1.15 2.32-1.72 3.48-.56-1.38-1.14-2.76-1.72-4.13-1.5.21-3.01.41-4.51.6.71-1.64 1.6-3.23 1.9-5.01-.81-.84-1.73-1.57-2.61-2.33-1.9 2.43-3.94 4.87-6.83 6.13 1.79-3.7 3.76-7.34 4.97-11.29zm176.61 15.36c.86-5.49 2.06-11.38 6.4-15.26-1.29 3.87-2.25 7.83-3.37 11.75-.34 1.63-1.9 2.46-3.03 3.51zm9.78-3c-2.1-4.44-.77-9.89 3.26-12.73-1.02 2.93-1.69 5.98-1.44 9.11.28 1.51-1.05 2.51-1.82 3.62zm-94.02 3.8c5.74-3.8 8.41-10.28 12.71-15.36-.11 2.26.34 4.93-1.64 6.56-2.57 2.6-4.59 5.62-6.23 8.88-.56 1.55-2.37 1.59-3.67 2.16-.29-.56-.87-1.68-1.17-2.24zm25.75-14.36c.52-.13 1.54-.41 2.05-.54-1.79 3.57-3.8 7.02-5.74 10.51l-2.19-.87c1.11-3.52 3.52-6.35 5.88-9.1zm-29.18 11.8c1.41-5.03 4.52-10.29 9.78-11.95-1.77 4.78-4.88 9.94-9.78 11.95z" fill="#423c36"/><path d="M277.28 261.7c1.4-3.23 3.37-6.51 7-7.5-2.1 6.33-7.37 11-9.22 17.47l-3.22.36c.43-4.09 3.93-6.7 5.44-10.33zm-161.27 9.45c1.85-5.83 4.66-11.43 8.99-15.83.05.46.14 1.38.19 1.84-2.3 7.52-6.08 14.42-10.35 20.98-1.07 1.76-2.14 3.52-3.2 5.28-.34-.68-.68-1.37-1.01-2.05 2.33-3.1 4.26-6.49 5.38-10.22zm132.81 3.17c2.84-4.07 4.78-9.1 9.3-11.67-2.04 3.79-4.23 7.57-5.14 11.83 1.47 1.06 2.94 2.15 4.36 3.29-2.17-.13-4.21-.8-5.77-2.35-.92-.37-1.84-.74-2.75-1.1zm-109.17-9.73c.47 1.42 1.89 2.91.92 4.42-2.38 4.62-5.1 9.07-7.11 13.88-2.84 6.64-6.41 13.18-7.18 20.48-.56.13-1.69.38-2.25.51-.39-.05-1.16-.16-1.55-.21 2.65-6.92 4.92-14.01 8.17-20.68 3.2-6.03 6.44-12.06 9-18.4z" fill="#423c36"/><path d="M256.5 274.88c1.2-3.71 2.8-7.66 6.55-9.45-1.17 3.75-3.15 7.31-6.55 9.45zm-120.54 14.48c3.08-5.81 4.94-12.62 10.42-16.76-2.72 8.5-8.07 15.83-11.19 24.16a70.063 70.063 0 0 1-3.44 7.28v-2.05c.08-4.56 2.15-8.69 4.21-12.63zm140.59-13.49c2.91-.18 5.84-.07 8.73.37-.56.38-1.69 1.14-2.25 1.52.97 9.57 1.71 19.29.48 28.87-1.39-3.39-2.6-6.85-3.61-10.36-1.64-6.7 1.3-14.57-3.35-20.4m4.05 18.67 3.04.76c-.27-1.79-.61-3.55-.99-5.3-.79 1.43-3.49 2.72-2.05 4.54zm14.15-.96c.35 2.93.72 5.86 1.05 8.8 1.14.25 2.27.51 3.41.77l.77.17c.14 3.49.69 7.12-.63 10.48.1-2.68.04-5.35 0-8.02-1.85 2.19-3.69 4.43-4.98 7.01.49-6.38.65-12.81.38-19.21z" fill="#423c36"/><path d="M324.39 20.875c4.66-4.68 10.9-7.18 16.6-10.31.03 1.11.07 2.22.11 3.33-4.5 2.73-9.32 4.96-13.5 8.17-6.2 5.05-12.01 10.54-17.87 15.96.65-1.34 1.29-2.68 2-3.99 3.94-4.64 8.29-8.92 12.66-13.16zm-89.06 40.95c13.56 1.4 27.21 2.06 40.65 4.43-.07.48-.2 1.45-.27 1.93-12.99-2.65-26.29-2.58-39.45-3.54.52-.32 1.57-.95 2.09-1.27-1.01-.53-2-1.06-3.02-1.55zM44.38 75.575l.05.83c.07 1.42.18 2.84.29 4.26l2.73-1.68c-1.17 4.77-2.8 9.46-3.36 14.36-.29 2.66-.82 5.29-1.68 7.82-1.18-6.44-.13-13 .22-19.47.33-2.11 1.07-4.12 1.75-6.12zm246.59 59.57c7.52-1.99 15.44-.81 23.12-.62 9.04 1.82 18.6 3.1 26.58 8.02-3.3-.09-6.61-.37-9.82-1.18-6.8-1.7-13.86-1.51-20.77-2.49 5.88.45 11.81.46 17.67-.24-11.66-3.06-23.86-3.46-35.86-3.28zm-48.37 19c2.25-1.13 4.57-2.15 6.77-3.4-2.44 2.88-5.74 4.69-9.16 6.16.75-.95 1.32-2.12 2.39-2.76zm-203.11 11.68c1.51-3.47 3.66-7.36 7.79-7.98-.21.63-.64 1.89-.86 2.52-2.4 4.38-4.93 8.7-6.97 13.27-.62-1.08-1.25-2.16-1.87-3.23.63-1.53 1.25-3.06 1.91-4.58zm183.19 7.77c-1.21-1.63.92-5.2 2.94-4.23-.68 1.59-1.59 3.11-2.94 4.23zm200.75.66c.03-1.36 1.87-3.17 3.14-2.02-.32 1.72-1.62 2.9-3.17 3.54 0-.38.02-1.14.03-1.52z" fill="#9c917b"/><path d="M27.382 194.02c3.1-7.03 6.26-14.04 9.2-21.14-.14.69-.41 2.07-.55 2.76 1.14-.66 2.28-1.33 3.42-2.01-4.07 7.57-6.63 15.8-10.21 23.59-.62-1.07-1.24-2.13-1.86-3.2zm92.75 50.41c5.53-1.62 11.36-1.37 17.05-1.28l-.12.9c-5.64-.45-11.29.16-16.93.38zm187.21 36.19c3.55-1.01 7.17-3.21 10.95-2.4 1.75.48 3.5.97 5.31 1.18-4.99 3.08-10.59 5.5-16.56 5.28 2.6-.66 5.07-1.73 7.47-2.92-2.37-.49-4.75-.95-7.17-1.14m10.17-1.53c-1.61-.12-1.91 2.64-.18 2.63 1.59.09 1.89-2.65.18-2.63z" fill="#9c917b"/><path d="M381.44 17.015c.73.91 1.43 1.85 2.11 2.82-.22 1.4-.44 2.81-.65 4.21-1.21-1.36-2.41-2.73-3.61-4.09l2.26.36c-.04-1.1-.08-2.2-.11-3.3zM63.61 47.135c5.47-6.35 14.32-8.12 22.33-7.69 2.03.34 3.81 1.46 5.62 2.37-5.9-1.69-12.2-1.47-18.11.05-3.48 1.34-6.51 3.6-9.84 5.27zm309.7 1.73c1.19 2.86 2.76 5.53 4.12 8.31.07.24.2.73.26.98-.83.89-1.68 1.75-2.53 2.61-.8-3.93-1.43-7.9-1.85-11.9zM45.28 73.905c2.1-5.62 4.4-11.37 8.05-16.17-1.98 5.73-4.4 11.29-8.05 16.17zm155.53-10.56c9.26-.98 18.49-3.37 27.85-2.2-1.15.43-2.29.87-3.42 1.33l-.59.21c-8.53-1.24-17.32.44-25.4 3.21 2 .35 4.01.66 6.04.76-2.9.65-5.83 1.17-8.79 1.44l1.95-2.73c-10.49.7-20.49 4.58-31.01 4.89 1.96-.99 4.05-1.69 6.22-2.04 9.05-1.65 18.02-3.73 27.15-4.87zm-50.46 11.61c4.94-2.9 10.67-4.32 16.37-4.54-5.34 1.9-10.83 3.33-16.37 4.54zm60.02-.04c2.33.34 5.33-.26 6.87 1.99 4.12 4.86 6.61 10.82 8.9 16.7-1.44-.06-2.87-.12-4.31-.17-4.76-5.52-9.81-11.2-11.46-18.52zm71.33 10.21c2.46-.42 3.4 2.44 3.87 4.31 1.54 6.62 2.9 13.31 3.62 20.08-1.18-.01-2.35-.01-3.53-.01-1.74-5.52-3.66-10.98-5.43-16.49-.83-2.64-1.58-6.37 1.47-7.89zm-106.26.52c5.26 4.99 9.71 11.15 11.99 18.08-6.25-1.32-9.84-7.04-13.03-12.03-1.43-1.98.43-4.14 1.04-6.05zm73.1 22.13c-1.24-2.68-1.92-6.6 1.24-8.2 2.75 7.35 7.31 14.06 8.62 21.9-.68-.01-2.04-.02-2.72-.03-2.23-4.64-4.96-9.01-7.14-13.67zm-38.18 3.14c2.03-.31 4.42-2.08 6.25-.42 3.5 2.75 4.4 7.48 7.41 10.68 2.08 2.06 2.99 4.84 3.28 7.71-7.36-4.03-13.44-10.31-16.94-17.97zm-142.94 14.04c1.97 5.43 2.37 11.21 2.65 16.94-1.09-.18-2.17-.35-3.26-.52.86-5.42 1.32-10.95.61-16.42zm121.28 14.46c-.88-1.95.73-3.93 2.55-4.5 4.13 5.21 8.61 10.11 13.27 14.86-.12.78-.36 2.35-.49 3.13-2.68-.52-5.24-1.59-7.14-3.61-2.99-3.02-6.73-5.73-8.19-9.88zm91.33-3.04c3.65-.38 7.26-2.59 10.94-1.23l.92.21c-9.91 2.38-19.85 4.87-29.24 8.92-4.51 1.96-9.39 3.33-13.28 6.47-2.2 1.25-4.52 2.27-6.77 3.4 2.06-3.01 5.17-5.06 8.36-6.71 9.37-4.43 18.64-9.63 29.07-11.06zm2.05 5.21c9.14-2.15 18.59-4.27 28-2.71 6.91.98 13.97.79 20.77 2.49 3.21.81 6.52 1.09 9.82 1.18 3.16.66 5.76 2.83 8.66 4.17 5.28 2.46 9.01 7.09 13.75 10.34 4.38 2.92 7.28 7.38 10.94 11.07 6.8 6.61 10.67 15.44 15.36 23.53 3.56 6.29 4.94 13.43 7.02 20.27 1.99 5.41 1.62 11.27 2.57 16.88 1 5.51-.2 11.05-.28 16.58-.14 4.56-1.79 8.87-2.46 13.35-3.03 16.9-11.44 32.49-22.27 45.67-6.23 6.43-12.34 13.26-20.13 17.86-7.67 5.18-15.83 9.91-24.85 12.27-15.97 5.37-33.32 7.36-49.96 4.26-7.32-1.61-14.16-4.76-21.06-7.6-16.14-6.89-29.56-19.16-39.62-33.38-1.56-2.17-2.86-4.51-4.04-6.9-3.16-6.61-7.68-12.61-9.48-19.82-.43-.23-1.27-.7-1.7-.93.23-2.46.5-4.93.3-7.4-.34-4.11-2.28-7.87-2.72-11.97-.58-4.26-.01-8.56-.35-12.83-.41-5.94-.06-11.98 1.62-17.72 1.24-4.21 1.16-8.88 3.6-12.66-.06 2.08-.05 4.16-.06 6.24 2-4.58 3.93-9.21 5.79-13.85 2.14-5.48 5.38-10.42 8.3-15.49 3.28-4.58 6.14-9.46 9.51-13.97 3.87-4.2 9.09-6.79 13.37-10.53 7.84-6.51 17.27-10.5 26.39-14.83 4.16-1.97 8.81-2.38 13.21-3.57m11.59 28.32c-5.23 1.34-10.67 2.13-15.54 4.57-5.79 2.86-12.26 5.65-15.54 11.58-2.77 3.9-3.13 10.29 1.54 12.92 7.44 4.74 16.86 4.26 25.31 3.6 1.14 6.74 2.73 13.41 3.3 20.24.89 5.42.74 11.03 2.52 16.28l.1-.82c.11 1.02.25 2.03.43 3.05-10.52 1.81-21.28 1.01-31.78-.49-5.43-1.18-11.08-1.32-16.54-.24-9.77 3.19-16.29 14.8-12.66 24.71 1.48 6.24 7.44 9.38 12.17 12.93 5.88 4.44 13.63 3.41 20.4 5.19-4.26 7.45-1.92 16.09-1.43 24.11.64 5.75 1.35 11.94 4.99 16.68 4.65 4.85 12.24 6.12 18.37 3.47 6.29-1.46 8.26-8.52 10.04-13.88 1.32-3.36.77-6.99.63-10.48l-.77-.17c1.98-7.23.54-14.86-2.9-21.4 7.56-1.87 15.11-4.25 22.92-4.68l-.94 1.15c-3.78-.81-7.4 1.39-10.95 2.4-3.04.42-6.05.99-9.07 1.52.11.62.34 1.87.46 2.49 2.65 1.03 5.58.48 8.31.05 5.97.22 11.57-2.2 16.56-5.28 8.92-3.86 17.73-8.34 25.31-14.48-.46-.22-.91-.44-1.37-.66-2.57 1.86-5.29 3.52-8.24 4.71 6.66-7.08 14.99-12.93 19.44-21.82 1.51-4.21 2.8-8.5 3.99-12.8 1.19-4.19-.88-8.35-3.23-11.7-2.41-4.08-7.84-4.49-12.06-3.96-5.96 1.34-11.83 4.21-15.9 8.87-1.3.08-2.59.23-3.88.37-7.15 5.3-16.35 6.57-23.49 11.91-1.2-.1-2.4-.2-3.59-.29-1.77-9.1-1.51-18.44-3.44-27.5-.69-3.64-1.93-7.35-.97-11.06 6.17-.92 11.87-3.79 16.63-7.76 3.97-3.34 5.56-8.88 5.02-13.91-.4-3.41-3.85-5.05-6.56-6.45-5.45-2.39-11.61-4.73-17.59-2.97zm-142.9-23.21c4.37 1.96 7 6.18 10.94 8.75 3.01 2.31 7.34 3.97 7.78 8.29-2.61-.41-5.37-.82-7.49-2.55-4.3-3.38-8.54-6.84-12.55-10.57.44-1.31.88-2.62 1.32-3.92zm287.34 18.87c3.37-2.17 7.55-1.62 11.35-1.48 7 .47 12.24 5.79 16.77 10.61-.87-.29-1.73-.58-2.59-.87-3.29-3.33-7.11-6.25-11.58-7.77-4.47-1.67-9.33-.82-13.95-.49z" fill="#716257"/><path d="M288.35 176.99c2.14-2.55 5.64-1.89 8.58-2.13-2.24.61-4.46 1.26-6.72 1.74-.47.1-1.39.29-1.86.39zm-16.22 7.81c1.55-2.79 4.46-4.17 7.42-4.97-2.41 1.76-4.9 3.38-7.42 4.97zm175.49-1.97c2.96-1.56.15 3.34 0 0zm-2.41 5.16c1-1.69 2.42-3.04 4.32-3.64-.21 2.48-2.06 3.44-4.32 3.64zm8.32-3c1.62-.53 2.18.02 1.67 1.65-1.64.52-2.19-.03-1.67-1.65zm-40 18.05c-2-4.08-2-9.77 1.16-13.26-.74 3.41-1.05 6.9-1.1 10.39-.01.71-.04 2.15-.06 2.87zm39.16-7.24a64.28 64.28 0 0 1 6.5-3.47c-.46 1.79.64 5.01-1.83 5.48-1.76.02-3.18-1.26-4.67-2.01zM21.35 212.65c1.8-6.27 3.27-12.68 6.03-18.63.62 1.07 1.24 2.13 1.86 3.2-3.6 7.36-4.81 15.53-7.89 23.06-.52-2.51-.83-5.14 0-7.63zm407.31-11.85c1.15-3.23 4.99-3.83 7.86-4.75-.66 4.74-4.23 7.93-7.69 10.82.48 1.53.97 3.06 1.45 4.6-.69.02-2.06.08-2.74.1.54-3.57.46-7.22 1.12-10.77zm12.05-2.9c1.86-1.37 3.11 1.6 1.1 2.35-1.84 1.41-3.12-1.63-1.1-2.35zm11.05.8c2.09.54 4.08 1.4 5.87 2.63-2.37.12-4.74.15-7.11.18.4-.94.82-1.87 1.24-2.81zm-10.42 9.08c1.69 1.11 3.25 2.42 4.52 4.01-1.52-.38-3.03-.79-4.53-1.2 0-.71 0-2.11.01-2.81zm5.71 4.85c.53-.2 1.59-.58 2.11-.78l-.57 5.14c.48.19 1.44.56 1.92.75-1.41 2.79-2.86 5.56-4.23 8.37 2.98-1.15 5.96-2.34 8.84-3.72-4.71 5.14-13.1 6.63-19.27 3.28 1.26-4.31 2.26-8.7 3.98-12.86.77 2.58 1.47 5.18 2.18 7.79-1.17-.15-2.33-.29-3.49-.43.16 1.77.31 3.53.46 5.3 1.89.56 3.79 1.09 5.7 1.6 1.32-4.72 2.07-9.56 2.37-14.44zm-303.58 33.09c3.59.93 7.62 2.63 7.68 6.97-1.21 3.95-3.18 7.59-4.97 11.29.16-2.23.38-4.45.64-6.67-1.93-.58-3.86-1.16-5.78-1.74 1.41-2.31 2.85-4.6 4.31-6.88-.62-1-1.25-1.99-1.88-2.97zm-5.12 1.58c1.2.15 2.38.37 3.57.63-1.1 3.11-2.72 6.04-5.13 8.33.37-3.01.95-5.99 1.56-8.96zm-19.76 1.41c.58-.32 1.73-.98 2.3-1.31-.47 3.39-1.03 6.99-3.26 9.73-2.04 2.74-5.4 3.86-8.4 5.19.61 2.69 1.73 5.45 1.17 8.23-.69 2.78-3.54 4-5.69 5.48.05-2.48.14-4.96.22-7.43-1.67 2.49-3.3 5-4.93 7.52-.11-.39-.33-1.16-.45-1.54-.02-1.99-.02-3.98-.15-5.97-.72 1.54-1.59 3.08-1.68 4.82-.37 3.11-.63 6.23-1.03 9.34 1.1-1.13 2.17-2.3 3.44-3.24 1.65-1.46 3.59.68 5.29 1.05-1.73 3.35-4.91 5.18-8.61 5.35.55 1.96 1.08 3.92 1.67 5.87-2.29-3.04-3.4-6.8-2.68-10.59 1-6.55.5-13.99 4.88-19.43-.11 1.83-.14 3.67-.15 5.51 2.77-3.34 4.29-7.44 6.43-11.16.71.12 1.42.24 2.14.37 1.32.78 2.76 2.63 4.42 1.53 2.97-2.18 3.74-6.09 5.07-9.32zm6.94-1.43h1.64c1.31.05 2.61.12 3.91.2-.52 1.41-1.04 2.81-1.55 4.22 1.75-1.18 3.5-2.36 5.26-3.53-2.42 5.05-3.05 11.99-8.49 14.83-.41-1.94-.81-3.88-1.11-5.84-.05-.46-.14-1.38-.19-1.84.76-.93 1.59-1.84 2.14-2.91-.2-1.8-1.03-3.45-1.61-5.13zm173.76 3.17c.56-1.66 2.38-2.15 3.73-2.99-2.34 5.6-5.29 11.05-9.71 15.29 1.37-4.38 4.25-8.06 5.98-12.3zm-35.52 21.24c4.38-5.17 7.4-11.41 12.38-16.05-.98 3.05-3.22 5.35-5.12 7.84-1.47 2.99-2.42 6.21-4.04 9.13-1.07-.31-2.15-.61-3.22-.92zm55.15-11.18c.27.48.83 1.42 1.11 1.89-.46 2.23-.93 4.46-1.38 6.69-.99.18-1.96.37-2.93.56.62-3.18 1.24-6.46 3.2-9.14zm-190.15 10.66c.92-2.06 2.66-3.52 4.44-4.81-2.4 7.34-5.38 14.91-10.86 20.52 1.38-5.51 3.98-10.61 6.42-15.71zm-17.13 12.25c1.06-1.76 2.13-3.52 3.2-5.28 1.31 1.57 2.6 3.16 3.88 4.76-.88.21-1.75.43-2.62.64-.82 4.85-6.12 5.47-9.7 7.51-1.5 1.69.88 3.46 1.55 4.99-1.85-.47-3.71-.93-5.57-1.37-.24 1.16-.48 2.34-.72 3.51-.77-1.28-1.54-2.56-2.33-3.82 3.09-3.04 6.52-5.7 10.24-7.91.3-1.71.58-3.42 1.06-5.08.33.68.67 1.37 1.01 2.05zm35.87-1.57c.47.29 1.41.88 1.88 1.17-1.62 3.78-3.03 8.23-7.16 9.96.79-4.11 3-7.7 5.28-11.13zm.66 15.59c.32-5.27 3.1-10.59 7.7-13.33-.41 5.25-3.72 10.06-7.7 13.33zm-16.42 6.6c1.29-2.36 2.43-4.79 3.44-7.28.11 1.53.29 3.05.46 4.58 1.42.01 2.84.03 4.26.05-.11 1.15-.21 2.3-.31 3.46 1.91-.3 3.81-.58 5.7-.95-5.52 2.76-11.84 4.33-18.03 3.97 1.75-.77 3.46-1.64 5.17-2.5-2.81-.46-5.6-1-8.41-1.49.56-.13 1.69-.38 2.25-.51 1.83-.45 3.65-.92 5.47-1.38zm75.1 27.12c1.49-.01 2.96.2 4.44.38-3.23 5.9-6.27 11.9-9.39 17.87-1.15.02-2.29.06-3.44.09 2.68-6.13 3.94-13.17 8.39-18.34zm-44.94 10.12c1.27-2.16 4.11-2.01 6.24-2.64-1.8 4.43-4.38 8.47-6.31 12.83-.85 1.63-1.5 3.56-3.07 4.66-1.12.39-2.31-.12-3.45-.17 1.89-5.01 3.78-10.1 6.59-14.68zm-54.49 14.53c1.07-1.74 3-2.48 4.81-3.18-2.13 7.64-7.9 13.5-12.97 19.33-.07-1.37-.72-2.9.19-4.13 2.57-4.06 5.22-8.08 7.97-12.02zm252.84 1.63c.45-1.42 2.34-1.19 3.5-1.03-1.13 6.82-.75 13.86-3.09 20.45-1.27-.8-3.68-1.06-3.58-2.98.4-5.56 1.25-11.19 3.17-16.44zm-54.94 2.15c.71-1.65 2.57-2.11 3.99-2.91-.58 5.09-2.61 9.84-3.55 14.86-1.8.39-3.6.77-5.4 1.13 1.03-4.57 2.71-8.98 4.96-13.08zm-82.23 13.87c.96-1.97 3.51-1.31 5.28-1.77-2.14 6.23-5.07 12.18-8.22 17.96-1.31 2.67-3.94 4.14-6.58 5.22 2.67-7.35 5.06-14.91 9.52-21.41zm40.34 2.48c.77.03 2.3.08 3.07.11-1.51 5.47-3.69 10.74-6.01 15.91-1.28 2.94-3.74 5.16-6.86 5.98 2.57-7.59 5.64-15.13 9.8-22zm63.17 5.2c1.25-.03 2.51-.05 3.76-.07-.96 5.71-3.36 11.05-4.14 16.81-.3 2.95-2.09 5.36-4.37 7.14-.58-2.95-1.4-6.1-.17-9.01 1.78-4.92 3.16-9.96 4.92-14.87zm-156.15 4.75c1.43-1.78 3.91-1.61 5.93-2.05-.61 3.79-2.9 6.86-5.06 9.91-2.14 2.88-2.38 7.86-6.79 8.17-.22-5.88 2.28-11.54 5.92-16.03zm117.89 12.52c1.68-.15 3.36-.3 5.04-.43-.32 2.58-.82 5.25-2.55 7.31-2.45 3.1-4.22 6.62-6.07 10.09-.58 1.27-1.93 1.81-3.16 2.23-1.47-1.17-.11-2.9.29-4.26 2.21-4.95 4.84-9.73 6.45-14.94zm-167.26 7.04c1.12-2.6 3.8-3.73 6.25-4.71-.73 5.66-4.61 10.01-7.35 14.78-1.18 2.03-2.81 3.74-4.55 5.31.07-5.64 3.3-10.47 5.65-15.38zm86.18 14.95c.49-1.94 2.28-2.28 4.01-2.03-1.19 5-4.25 9.18-7.02 13.39-1.88 2.56-3.68 5.5-6.69 6.85-.16-.41-.49-1.25-.66-1.67 2.66-6 7.83-10.45 10.36-16.54zm35.6 3.79c.98-1.91 3.03-.48 4.49-.08-3.65 4.89-6.27 10.57-10.66 14.88-.61-5.68 2.87-10.55 6.17-14.8zm55.26 1.22c.85-1.97 3.26-2.11 5.01-2.84-1.42 5.63-2.94 11.29-5.39 16.57-.32.19-.98.57-1.31.76-.67-.01-2.01-.04-2.68-.06 1.24-4.86 2.09-9.91 4.37-14.43zm-143.7 15.28c2.9-5.71 4.7-12.83 10.79-16.04.44 4.47-3.08 7.57-4.75 11.34-.88 1.88-1.63 3.81-2.41 5.73-1.22-.34-2.43-.69-3.63-1.03z" fill="#716257"/><path d="M334.47 37.945c4.52-4.05 10.09-6.92 15.96-8.41 5.72-.49 11.61 1.63 16.18 5.01 3.64 3.92 5.06 9.34 6.7 14.32.42 4 1.05 7.97 1.85 11.9.14 11.72-3.69 23.01-7.64 33.89-.4 1.19-.78 2.38-1.16 3.58l-.72-.45c-5.94-5.66-12.83-10.18-19.71-14.59-8.43-5.1-16.99-10.07-26.11-13.86-2.97-1.27-5.87-2.71-8.71-4.25 2.82-4.4 6.02-8.53 8.77-12.98 3.68-5.82 9.49-9.72 14.59-14.16zM76.09 80.585c3.2-2.49 6.7-4.74 10.55-6.06 5.99-1.1 11.29 3.46 17.28 2.84 3.15 7.11 9.81 11.49 14.35 17.56 3.96 4.42 7.93 8.86 11.08 13.92.88 1.46 1.93 3 1.89 4.78-.76 1.29-1.75 3.15-3.52 2.85-1.12-1.09-1.92-2.45-2.81-3.71-1.45 1.11-3.99 1.71-3.77 3.97.44 1.63 1.36 3.06 2.15 4.54-1.28 2.05-2.97 3.84-5.27 4.71-1.16-2.12-1.31-6.27-4.67-5.67-2.47 3.21 1.37 7.32.49 10.94-1.57 2.5-3.9 4.37-6.04 6.35-1.93-1.68-4.19-2.36-6.41-.76.57 1.61 1.14 3.22 1.78 4.81l.33.78c-2.29 2.43-4.78 4.65-7.35 6.77-1.45-2.74-1.64-6.82-4.82-8.12-3.47 4.12.15 8.97-.23 13.54-.26 2.05-2.55 2.57-4.17 3.16-.8-2.52-2.14-4.83-4.33-6.38.1 3.84.82 7.65 1.97 11.31-2.34.82-4.82 1.2-7.21.35-2.38-7.08-5.83-13.81-7.29-21.17-.28-5.73-.68-11.51-2.65-16.94-.26-1.09-.49-2.18-.7-3.28-.36-3.66-.24-7.35-.19-11.02.33-6.18-.57-12.72 2.19-18.5 2.01-4.09 3.56-8.76 7.37-11.57zm361.2 88.56c3.95-.38 7.99-1.69 11.91-.45 4.88 1.53 9.37 4.18 14.44 5.13.86.29 1.72.58 2.59.87-.4.88-.83 1.76-1.14 2.68 1.55 1.63 3.23 3.13 4.71 4.82-3.06 2.24-5.83 5.08-6.35 9.02 2.8-1.51 4.43-4.26 6.02-6.89.25 1.57.53 3.13.74 4.71-.04.53-.11 1.58-.15 2.11-.65.12-1.3.24-1.94.36.56 1.25 1.31 2.54 1.1 3.98-1.23.65-2.51 1.2-3.76 1.8l3.78.12c-.31 2.13-.56 4.28-.76 6.43l-.1.95c-1.57 1.1-3.17 2.16-4.76 3.23.62.89 1.24 1.78 1.86 2.68-3.06 4.25-7.33 7.41-10.36 11.7-2.88 1.38-5.86 2.57-8.84 3.72 1.37-2.81 2.82-5.58 4.23-8.37-.48-.19-1.44-.56-1.92-.75l.57-5.14c-.52.2-1.58.58-2.11.78-.3 4.88-1.05 9.72-2.37 14.44-1.91-.51-3.81-1.04-5.7-1.6 1.32-.57 2.66-1.12 3.99-1.67-.33-1.07-.66-2.14-.96-3.2-.71-2.61-1.41-5.21-2.18-7.79-1.72 4.16-2.72 8.55-3.98 12.86l-1.02-.54c-2.38-1.25-4.78-2.46-7.19-3.63-.15-1.55-.29-3.1-.43-4.65-1.12-.69-2.23-1.38-3.34-2.08.02 1.52.03 3.03.05 4.55-2.34-1.66-4.63-3.38-6.66-5.39-2.79-2.88-3.63-7.01-3.73-10.89.02-.72.05-2.16.06-2.87 4.13-4.72 4-11.49 7.62-16.48 3.75-5.37 8.17-10.44 13.86-13.82-.16 2.62 3.29 1.33 2.22-.73m3.49 7.18c-.58 1.85.43 3.7.76 5.51 1.15-3.36 3.12-6.29 5.25-9.1-2.06 1.11-4.12 2.23-6.01 3.59m-4.25-.96c-.95 1.15-.7 1.8.74 1.96.93-1.15.68-1.8-.74-1.96m22.44-.74c.74 1.78 1.18 3.67 1.33 5.59 1.32-.05 2.64-.11 3.97-.17-1.49-2.07-3.33-3.83-5.3-5.42m-24.15 4.27c-.46 1.4.02 1.88 1.42 1.44.45-1.41-.02-1.89-1.42-1.44m13.87.19c-1.33.91.18 3.23 1.51 2.19 1.29-.92-.17-3.26-1.51-2.19m-12.47 7.99a22.49 22.49 0 0 0 4.26-6.31c-2.22 1.5-4.75 3.24-4.26 6.31m11.4-4.24c.15 3.34 2.96-1.56 0 0m17.07.09c-1.04.24-1.89 2.19-.46 2.51 1.82.46 2.77-3.23.46-2.51m-24.36 2.15c-1.55 2.98 3.34.14 0 0m4.88 2.92c2.26-.2 4.11-1.16 4.32-3.64-1.9.6-3.32 1.95-4.32 3.64m8.32-3c-.52 1.62.03 2.17 1.67 1.65.51-1.63-.05-2.18-1.67-1.65m-20.63 4.46c1.03.81 1.87 2.28 3.35 2.21 1.26-.53 2.24-1.53 3.31-2.36-2.22.01-4.44.05-6.66.15m9.02 7.07c1.58-.47 3.15-.99 4.73-1.51-.8-.95-1.62-1.9-2.42-2.84-.88 1.4-1.66 2.84-2.31 4.35m11.78-3.66c.1 3.33 3.01-1.51 0 0m-1.01 2.94c1.49.75 2.91 2.03 4.67 2.01 2.47-.47 1.37-3.69 1.83-5.48a64.28 64.28 0 0 0-6.5 3.47m-24.03 5c-.66 3.55-.58 7.2-1.12 10.77.68-.02 2.05-.08 2.74-.1-.48-1.54-.97-3.07-1.45-4.6 3.46-2.89 7.03-6.08 7.69-10.82-2.87.92-6.71 1.52-7.86 4.75m12.05-2.9c-2.02.72-.74 3.76 1.1 2.35 2.01-.75.76-3.72-1.1-2.35m8.01.03c.11 3.34 2.99-1.54 0 0m3.04.77c-.42.94-.84 1.87-1.24 2.81 2.37-.03 4.74-.06 7.11-.18-1.79-1.23-3.78-2.09-5.87-2.63m12.94 3.07c.14 3.34 2.97-1.55 0 0m-23.36 6.01c-.01.7-.01 2.1-.01 2.81 1.5.41 3.01.82 4.53 1.2-1.27-1.59-2.83-2.9-4.52-4.01m16.1 7.24c2.33-.8 3.12-3.16 3.79-5.28-2.39.78-3.66 2.83-3.79 5.28zM296 174.665c3.06-.77 6.22-.55 9.33-.3-.67 1.44-1.33 2.88-1.98 4.33-3.36-.1-6.71-.28-10.07-.19 1.9-.35 3.81-.69 5.71-1.03l.08-2.19c-.53-.1-1.61-.31-2.14-.42zm-27.12 17.19c4.14-3.11 7.77-6.92 12.32-9.46.22.59.66 1.77.89 2.37-5.07 3.05-9.91 6.53-15.37 8.86l-.91.41c.49-1.93 1.17-3.81 2.26-5.48.2.83.61 2.48.81 3.3zm16.27 4.61c1.29-2.28 3.74-3.16 6.11-3.9-.76 1.29-1.52 2.59-2.28 3.89-1.28.01-2.56.01-3.83.01zm-164.26 50.94c1.54-.14 3.09-.12 4.64-.12.58 1.68 1.41 3.33 1.61 5.13-.55 1.07-1.38 1.98-2.14 2.91-4.33 4.4-7.14 10-8.99 15.83-1.12 3.73-3.05 7.12-5.38 10.22-.48 1.66-.76 3.37-1.06 5.08a53.755 53.755 0 0 0-10.24 7.91c-.21-.64-.64-1.92-.85-2.56-.59-1.95-1.12-3.91-1.67-5.87 3.7-.17 6.88-2 8.61-5.35-1.7-.37-3.64-2.51-5.29-1.05-1.27.94-2.34 2.11-3.44 3.24.4-3.11.66-6.23 1.03-9.34.46.29 1.38.86 1.83 1.15.12.38.34 1.15.45 1.54 1.63-2.52 3.26-5.03 4.93-7.52-.08 2.47-.17 4.95-.22 7.43 2.15-1.48 5-2.7 5.69-5.48.56-2.78-.56-5.54-1.17-8.23 3-1.33 6.36-2.45 8.4-5.19 2.23-2.74 2.79-6.34 3.26-9.73z" fill="#c17b67"/><path d="M127.17 247.28c3.72-.26 7.47-.46 11.18.02-.61 2.97-1.19 5.95-1.56 8.96 2.41-2.29 4.03-5.22 5.13-8.33 1.14.24 2.28.5 3.43.76-1.46 2.28-2.9 4.57-4.31 6.88 1.92.58 3.85 1.16 5.78 1.74-.26 2.22-.48 4.44-.64 6.67 2.89-1.26 4.93-3.7 6.83-6.13.88.76 1.8 1.49 2.61 2.33-.3 1.78-1.19 3.37-1.9 5.01 1.5-.19 3.01-.39 4.51-.6.58 1.37 1.16 2.75 1.72 4.13 1.52 4.17 2.64 8.99.66 13.21-2.05 4.88-2.86 10.5-6.63 14.47-2.62 2.78-5.41 5.49-8.68 7.5-1.89.37-3.79.65-5.7.95.1-1.16.2-2.31.31-3.46-1.42-.02-2.84-.04-4.26-.05-.17-1.53-.35-3.05-.46-4.58 3.12-8.33 8.47-15.66 11.19-24.16-5.48 4.14-7.34 10.95-10.42 16.76-2.06 3.94-4.13 8.07-4.21 12.63-1.82.46-3.64.93-5.47 1.38.77-7.3 4.34-13.84 7.18-20.48 2.01-4.81 4.73-9.26 7.11-13.88.97-1.51-.45-3-.92-4.42-2.56 6.34-5.8 12.37-9 18.4-3.25 6.67-5.52 13.76-8.17 20.68.39.05 1.16.16 1.55.21 2.81.49 5.6 1.03 8.41 1.49-1.71.86-3.42 1.73-5.17 2.5-5.57-.65-11.72.85-16.73-2.31-3.51-1.73-6.19-4.62-8.88-7.38.24-1.17.48-2.35.72-3.51 1.86.44 3.72.9 5.57 1.37-.67-1.53-3.05-3.3-1.55-4.99 3.58-2.04 8.88-2.66 9.7-7.51.87-.21 1.74-.43 2.62-.64-1.28-1.6-2.57-3.19-3.88-4.76 4.27-6.56 8.05-13.46 10.35-20.98.3 1.96.7 3.9 1.11 5.84 5.44-2.84 6.07-9.78 8.49-14.83-1.76 1.17-3.51 2.35-5.26 3.53.51-1.41 1.03-2.81 1.55-4.22-1.3-.08-2.6-.15-3.91-.2m1.6 23.89c-2.44 5.1-5.04 10.2-6.42 15.71 5.48-5.61 8.46-13.18 10.86-20.52-1.78 1.29-3.52 2.75-4.44 4.81m18.74 10.68c-2.28 3.43-4.49 7.02-5.28 11.13 4.13-1.73 5.54-6.18 7.16-9.96-.47-.29-1.41-.88-1.88-1.17m.66 15.59c3.98-3.27 7.29-8.08 7.7-13.33-4.6 2.74-7.38 8.06-7.7 13.33zm-41.21-41.31c3.09-3.55 7.83-4.83 11.63-7.42-1.33 3.23-2.1 7.14-5.07 9.32-1.66 1.1-3.1-.75-4.42-1.53-.72-.13-1.43-.25-2.14-.37z" fill="#c17b67"/><path d="M305.33 174.36c2.17 1.32 4.38 2.59 6.6 3.83 0 2.37.26 4.8-.35 7.13-4.79 9.11-15.19 13.73-25.17 13.86-4.61-.01-9.35.75-13.86-.56-2.64-.65-4.2-3.05-5.83-5 5.46-2.33 10.3-5.81 15.37-8.86-.23-.6-.67-1.78-.89-2.37 3.14-1.32 6.36-2.45 9.63-3.4.61-.12 1.84-.37 2.45-.49 3.36-.09 6.71.09 10.07.19.65-1.45 1.31-2.89 1.98-4.33m-20.18 22.1c1.27 0 2.55 0 3.83-.01.76-1.3 1.52-2.6 2.28-3.89-2.37.74-4.82 1.62-6.11 3.9z" fill="#f36c2c"/><path d="M270.26 283.86c.31-3.7 3.56-5.98 6.29-7.99 4.65 5.83 1.71 13.7 3.35 20.4 1.01 3.51 2.22 6.97 3.61 10.36 1.23-9.58.49-19.3-.48-28.87.56-.38 1.69-1.14 2.25-1.52 2.75 2.1 6.01 4.05 7.34 7.41 1.21 3.18 1.7 6.57 2.13 9.93.27 6.4.11 12.83-.38 19.21-1.04 3.56-1.94 7.56-5.02 9.96-3.25 2.69-8.36 3.38-11.88.88-5.74-5.82-5.96-14.41-7.79-21.9-1.57-5.89-.01-11.96.58-17.87z" fill="#cf492a"/></svg>