<?xml version="1.0" standalone="no"?>
<!DOCTYPE svg PUBLIC "-//W3C//DTD SVG 20010904//EN"
 "http://www.w3.org/TR/2001/REC-SVG-20010904/DTD/svg10.dtd">
<svg version="1.0" xmlns="http://www.w3.org/2000/svg"
 width="700.000000pt" height="700.000000pt" viewBox="0 0 700.000000 700.000000"
 preserveAspectRatio="xMidYMid meet">
<metadata>
Created by potrace 1.14, written by Peter Selinger 2001-2017
</metadata>
<g transform="translate(0.000000,700.000000) scale(0.100000,-0.100000)"
fill="#000000" stroke="none">
<path d="M3472 6917 c-12 -40 -56 -173 -96 -297 -41 -124 -151 -461 -246 -750
-94 -289 -180 -550 -190 -580 -10 -30 -76 -230 -146 -445 -70 -214 -155 -475
-189 -580 -35 -104 -129 -391 -209 -637 -81 -247 -149 -448 -152 -448 -2 0
-98 68 -212 152 -445 326 -1017 743 -1187 866 -77 55 -144 105 -150 109 -5 5
-68 51 -140 103 -72 51 -206 150 -298 218 -93 68 -170 122 -172 120 -1 -2 10
-41 25 -88 16 -47 103 -314 195 -595 92 -280 182 -555 200 -610 18 -55 110
-336 205 -625 94 -289 186 -570 205 -625 18 -55 97 -293 174 -530 78 -236 190
-581 251 -765 60 -184 151 -462 202 -617 51 -156 95 -280 99 -275 3 4 55 156
114 337 59 182 138 422 175 535 37 113 122 374 189 580 143 436 295 901 322
980 10 30 23 54 28 53 5 -1 235 -167 512 -369 276 -201 507 -368 513 -370 13
-5 18 -1 442 309 187 136 397 290 469 342 71 52 132 91 135 87 3 -4 11 -23 17
-42 6 -19 78 -237 158 -485 81 -247 159 -486 172 -530 14 -44 29 -89 33 -100
16 -41 215 -648 376 -1145 31 -96 59 -178 63 -182 4 -5 49 121 101 280 90 276
131 401 435 1327 76 231 139 425 141 430 1 6 52 163 114 350 61 187 152 464
202 615 49 151 100 307 113 345 21 62 329 1002 418 1275 19 58 33 106 32 108
-2 2 -29 -16 -62 -41 -32 -24 -150 -110 -263 -192 -113 -82 -236 -172 -275
-200 -38 -28 -230 -168 -425 -310 -195 -142 -386 -282 -425 -310 -153 -114
-705 -515 -709 -515 -4 0 -68 192 -408 1230 -44 135 -88 270 -98 300 -10 30
-91 278 -180 550 -89 272 -184 560 -210 640 -26 80 -102 314 -170 520 -158
485 -181 554 -189 562 -3 4 -17 -25 -29 -65z m111 -1482 c116 -357 363 -1113
422 -1290 29 -88 110 -335 180 -550 70 -214 147 -450 171 -523 24 -73 44 -138
43 -145 0 -6 -99 -84 -221 -172 -121 -88 -260 -189 -309 -225 -48 -36 -97 -72
-109 -80 -12 -8 -75 -54 -140 -102 l-119 -87 -208 151 c-114 84 -278 203 -363
265 -85 62 -194 141 -242 176 -48 34 -87 68 -88 75 0 8 11 46 24 85 13 40 99
302 191 582 91 281 179 548 195 595 15 47 66 202 113 345 406 1243 378 1159
383 1140 1 -6 36 -113 77 -240z m-2573 -1863 c47 -34 216 -157 375 -273 160
-117 306 -224 327 -238 145 -103 391 -287 394 -296 3 -6 -29 -112 -69 -235
-141 -428 -346 -1055 -368 -1125 -12 -38 -25 -73 -28 -78 -4 -4 -40 95 -81
220 -40 126 -117 361 -171 523 -53 162 -170 518 -259 790 -89 272 -182 556
-207 630 -25 74 -49 148 -53 163 l-9 29 32 -25 c18 -13 70 -51 117 -85z m5127
101 c-2 -5 -52 -156 -111 -338 -59 -181 -114 -348 -123 -370 -8 -22 -16 -47
-18 -55 -2 -8 -21 -69 -43 -135 -22 -66 -104 -316 -182 -555 -259 -793 -298
-905 -303 -890 -10 28 -45 134 -216 655 -276 843 -255 775 -240 790 8 7 118
88 244 181 350 255 448 326 730 532 143 105 261 191 263 191 2 1 1 -2 -1 -6z"/>
</g>
</svg>
